G04 #@! TF.GenerationSoftware,KiCad,Pcbnew,(5.1.5)-3*
G04 #@! TF.CreationDate,2021-07-16T13:31:02-05:00*
G04 #@! TF.ProjectId,IRF510-Amplifier,49524635-3130-42d4-916d-706c69666965,rev?*
G04 #@! TF.SameCoordinates,Original*
G04 #@! TF.FileFunction,Soldermask,Bot*
G04 #@! TF.FilePolarity,Negative*
%FSLAX46Y46*%
G04 Gerber Fmt 4.6, Leading zero omitted, Abs format (unit mm)*
G04 Created by KiCad (PCBNEW (5.1.5)-3) date 2021-07-16 13:31:02*
%MOMM*%
%LPD*%
G04 APERTURE LIST*
%ADD10C,0.660400*%
%ADD11C,0.100000*%
G04 APERTURE END LIST*
D10*
X84530200Y-52200000D02*
G75*
G03X84530200Y-52200000I-330200J0D01*
G01*
X84530200Y-44600000D02*
G75*
G03X84530200Y-44600000I-330200J0D01*
G01*
X79530200Y-49700000D02*
G75*
G03X79530200Y-49700000I-330200J0D01*
G01*
X84530200Y-54800000D02*
G75*
G03X84530200Y-54800000I-330200J0D01*
G01*
X84530200Y-47200000D02*
G75*
G03X84530200Y-47200000I-330200J0D01*
G01*
D11*
G36*
X198775256Y-96191298D02*
G01*
X198881579Y-96212447D01*
X199182042Y-96336903D01*
X199452451Y-96517585D01*
X199682415Y-96747549D01*
X199863097Y-97017958D01*
X199987553Y-97318421D01*
X200051000Y-97637391D01*
X200051000Y-97962609D01*
X199987553Y-98281579D01*
X199863097Y-98582042D01*
X199682415Y-98852451D01*
X199452451Y-99082415D01*
X199182042Y-99263097D01*
X198881579Y-99387553D01*
X198775256Y-99408702D01*
X198562611Y-99451000D01*
X198237389Y-99451000D01*
X198024744Y-99408702D01*
X197918421Y-99387553D01*
X197617958Y-99263097D01*
X197347549Y-99082415D01*
X197117585Y-98852451D01*
X196936903Y-98582042D01*
X196812447Y-98281579D01*
X196749000Y-97962609D01*
X196749000Y-97637391D01*
X196812447Y-97318421D01*
X196936903Y-97017958D01*
X197117585Y-96747549D01*
X197347549Y-96517585D01*
X197617958Y-96336903D01*
X197918421Y-96212447D01*
X198024744Y-96191298D01*
X198237389Y-96149000D01*
X198562611Y-96149000D01*
X198775256Y-96191298D01*
G37*
G36*
X79575256Y-96191298D02*
G01*
X79681579Y-96212447D01*
X79982042Y-96336903D01*
X80252451Y-96517585D01*
X80482415Y-96747549D01*
X80663097Y-97017958D01*
X80787553Y-97318421D01*
X80851000Y-97637391D01*
X80851000Y-97962609D01*
X80787553Y-98281579D01*
X80663097Y-98582042D01*
X80482415Y-98852451D01*
X80252451Y-99082415D01*
X79982042Y-99263097D01*
X79681579Y-99387553D01*
X79575256Y-99408702D01*
X79362611Y-99451000D01*
X79037389Y-99451000D01*
X78824744Y-99408702D01*
X78718421Y-99387553D01*
X78417958Y-99263097D01*
X78147549Y-99082415D01*
X77917585Y-98852451D01*
X77736903Y-98582042D01*
X77612447Y-98281579D01*
X77549000Y-97962609D01*
X77549000Y-97637391D01*
X77612447Y-97318421D01*
X77736903Y-97017958D01*
X77917585Y-96747549D01*
X78147549Y-96517585D01*
X78417958Y-96336903D01*
X78718421Y-96212447D01*
X78824744Y-96191298D01*
X79037389Y-96149000D01*
X79362611Y-96149000D01*
X79575256Y-96191298D01*
G37*
G36*
X139679487Y-92648996D02*
G01*
X139916253Y-92747068D01*
X139916255Y-92747069D01*
X140129339Y-92889447D01*
X140310553Y-93070661D01*
X140422302Y-93237905D01*
X140452932Y-93283747D01*
X140551004Y-93520513D01*
X140601000Y-93771861D01*
X140601000Y-94028139D01*
X140551004Y-94279487D01*
X140452932Y-94516253D01*
X140452931Y-94516255D01*
X140310553Y-94729339D01*
X140129339Y-94910553D01*
X139916255Y-95052931D01*
X139916254Y-95052932D01*
X139916253Y-95052932D01*
X139679487Y-95151004D01*
X139428139Y-95201000D01*
X139171861Y-95201000D01*
X138920513Y-95151004D01*
X138683747Y-95052932D01*
X138683746Y-95052932D01*
X138683745Y-95052931D01*
X138470661Y-94910553D01*
X138289447Y-94729339D01*
X138147069Y-94516255D01*
X138147068Y-94516253D01*
X138048996Y-94279487D01*
X137999000Y-94028139D01*
X137999000Y-93771861D01*
X138048996Y-93520513D01*
X138147068Y-93283747D01*
X138177699Y-93237905D01*
X138289447Y-93070661D01*
X138470661Y-92889447D01*
X138683745Y-92747069D01*
X138683747Y-92747068D01*
X138920513Y-92648996D01*
X139171861Y-92599000D01*
X139428139Y-92599000D01*
X139679487Y-92648996D01*
G37*
G36*
X144679487Y-92648996D02*
G01*
X144916253Y-92747068D01*
X144916255Y-92747069D01*
X145129339Y-92889447D01*
X145310553Y-93070661D01*
X145422302Y-93237905D01*
X145452932Y-93283747D01*
X145551004Y-93520513D01*
X145601000Y-93771861D01*
X145601000Y-94028139D01*
X145551004Y-94279487D01*
X145452932Y-94516253D01*
X145452931Y-94516255D01*
X145310553Y-94729339D01*
X145129339Y-94910553D01*
X144916255Y-95052931D01*
X144916254Y-95052932D01*
X144916253Y-95052932D01*
X144679487Y-95151004D01*
X144428139Y-95201000D01*
X144171861Y-95201000D01*
X143920513Y-95151004D01*
X143683747Y-95052932D01*
X143683746Y-95052932D01*
X143683745Y-95052931D01*
X143470661Y-94910553D01*
X143289447Y-94729339D01*
X143147069Y-94516255D01*
X143147068Y-94516253D01*
X143048996Y-94279487D01*
X142999000Y-94028139D01*
X142999000Y-93771861D01*
X143048996Y-93520513D01*
X143147068Y-93283747D01*
X143177699Y-93237905D01*
X143289447Y-93070661D01*
X143470661Y-92889447D01*
X143683745Y-92747069D01*
X143683747Y-92747068D01*
X143920513Y-92648996D01*
X144171861Y-92599000D01*
X144428139Y-92599000D01*
X144679487Y-92648996D01*
G37*
G36*
X160136693Y-88101859D02*
G01*
X160402437Y-88154719D01*
X160903087Y-88362095D01*
X161083561Y-88482684D01*
X161353660Y-88663158D01*
X161736842Y-89046340D01*
X161917316Y-89316439D01*
X162037905Y-89496913D01*
X162182944Y-89847068D01*
X162245281Y-89997564D01*
X162351000Y-90529049D01*
X162351000Y-91070951D01*
X162298140Y-91336694D01*
X162245281Y-91602437D01*
X162037905Y-92103087D01*
X161939070Y-92251003D01*
X161736842Y-92553660D01*
X161353660Y-92936842D01*
X161153385Y-93070661D01*
X160903087Y-93237905D01*
X160402437Y-93445281D01*
X160136693Y-93498141D01*
X159870951Y-93551000D01*
X159329049Y-93551000D01*
X159063307Y-93498141D01*
X158797563Y-93445281D01*
X158296913Y-93237905D01*
X158046615Y-93070661D01*
X157846340Y-92936842D01*
X157463158Y-92553660D01*
X157260930Y-92251003D01*
X157162095Y-92103087D01*
X156954719Y-91602437D01*
X156901860Y-91336694D01*
X156849000Y-91070951D01*
X156849000Y-90529049D01*
X156954719Y-89997564D01*
X157017056Y-89847068D01*
X157162095Y-89496913D01*
X157282684Y-89316439D01*
X157463158Y-89046340D01*
X157846340Y-88663158D01*
X158116439Y-88482684D01*
X158296913Y-88362095D01*
X158797563Y-88154719D01*
X159063307Y-88101859D01*
X159329049Y-88049000D01*
X159870951Y-88049000D01*
X160136693Y-88101859D01*
G37*
G36*
X142179487Y-89748996D02*
G01*
X142416253Y-89847068D01*
X142416255Y-89847069D01*
X142629339Y-89989447D01*
X142810553Y-90170661D01*
X142952932Y-90383747D01*
X143051004Y-90620513D01*
X143101000Y-90871861D01*
X143101000Y-91128139D01*
X143051004Y-91379487D01*
X142958655Y-91602436D01*
X142952931Y-91616255D01*
X142810553Y-91829339D01*
X142629339Y-92010553D01*
X142416255Y-92152931D01*
X142416254Y-92152932D01*
X142416253Y-92152932D01*
X142179487Y-92251004D01*
X141928139Y-92301000D01*
X141671861Y-92301000D01*
X141420513Y-92251004D01*
X141183747Y-92152932D01*
X141183746Y-92152932D01*
X141183745Y-92152931D01*
X140970661Y-92010553D01*
X140789447Y-91829339D01*
X140647069Y-91616255D01*
X140641345Y-91602436D01*
X140548996Y-91379487D01*
X140499000Y-91128139D01*
X140499000Y-90871861D01*
X140548996Y-90620513D01*
X140647068Y-90383747D01*
X140789447Y-90170661D01*
X140970661Y-89989447D01*
X141183745Y-89847069D01*
X141183747Y-89847068D01*
X141420513Y-89748996D01*
X141671861Y-89699000D01*
X141928139Y-89699000D01*
X142179487Y-89748996D01*
G37*
G36*
X82098671Y-84556098D02*
G01*
X82409798Y-84684971D01*
X82689805Y-84872066D01*
X82927934Y-85110195D01*
X83115029Y-85390202D01*
X83243902Y-85701329D01*
X83309600Y-86031618D01*
X83309600Y-86368382D01*
X83243902Y-86698671D01*
X83115029Y-87009798D01*
X82927934Y-87289805D01*
X82689805Y-87527934D01*
X82409798Y-87715029D01*
X82098671Y-87843902D01*
X81768382Y-87909600D01*
X81431618Y-87909600D01*
X81101329Y-87843902D01*
X80790202Y-87715029D01*
X80510195Y-87527934D01*
X80272066Y-87289805D01*
X80084971Y-87009798D01*
X79956098Y-86698671D01*
X79890400Y-86368382D01*
X79890400Y-86031618D01*
X79956098Y-85701329D01*
X80084971Y-85390202D01*
X80272066Y-85110195D01*
X80510195Y-84872066D01*
X80790202Y-84684971D01*
X81101329Y-84556098D01*
X81431618Y-84490400D01*
X81768382Y-84490400D01*
X82098671Y-84556098D01*
G37*
G36*
X196478671Y-84536098D02*
G01*
X196789798Y-84664971D01*
X197069805Y-84852066D01*
X197307934Y-85090195D01*
X197495029Y-85370202D01*
X197623902Y-85681329D01*
X197689600Y-86011618D01*
X197689600Y-86348382D01*
X197623902Y-86678671D01*
X197495029Y-86989798D01*
X197307934Y-87269805D01*
X197069805Y-87507934D01*
X196789798Y-87695029D01*
X196478671Y-87823902D01*
X196148382Y-87889600D01*
X195811618Y-87889600D01*
X195481329Y-87823902D01*
X195170202Y-87695029D01*
X194890195Y-87507934D01*
X194652066Y-87269805D01*
X194464971Y-86989798D01*
X194336098Y-86678671D01*
X194270400Y-86348382D01*
X194270400Y-86011618D01*
X194336098Y-85681329D01*
X194464971Y-85370202D01*
X194652066Y-85090195D01*
X194890195Y-84852066D01*
X195170202Y-84664971D01*
X195481329Y-84536098D01*
X195811618Y-84470400D01*
X196148382Y-84470400D01*
X196478671Y-84536098D01*
G37*
G36*
X146351000Y-86111000D02*
G01*
X144449000Y-86111000D01*
X144449000Y-84209000D01*
X146351000Y-84209000D01*
X146351000Y-86111000D01*
G37*
G36*
X191702123Y-82895333D02*
G01*
X191844555Y-82938539D01*
X191975820Y-83008702D01*
X192090875Y-83103125D01*
X192185298Y-83218180D01*
X192255461Y-83349445D01*
X192298667Y-83491877D01*
X192313256Y-83640000D01*
X192298667Y-83788123D01*
X192255461Y-83930555D01*
X192185298Y-84061820D01*
X192090875Y-84176875D01*
X191975820Y-84271298D01*
X191844555Y-84341461D01*
X191702123Y-84384667D01*
X191591120Y-84395600D01*
X190208880Y-84395600D01*
X190097877Y-84384667D01*
X189955445Y-84341461D01*
X189824180Y-84271298D01*
X189709125Y-84176875D01*
X189614702Y-84061820D01*
X189544539Y-83930555D01*
X189501333Y-83788123D01*
X189486744Y-83640000D01*
X189501333Y-83491877D01*
X189544539Y-83349445D01*
X189614702Y-83218180D01*
X189709125Y-83103125D01*
X189824180Y-83008702D01*
X189955445Y-82938539D01*
X190097877Y-82895333D01*
X190208880Y-82884400D01*
X191591120Y-82884400D01*
X191702123Y-82895333D01*
G37*
G36*
X87482123Y-80375333D02*
G01*
X87624555Y-80418539D01*
X87755820Y-80488702D01*
X87870875Y-80583125D01*
X87965298Y-80698180D01*
X88035461Y-80829445D01*
X88078667Y-80971877D01*
X88093256Y-81120000D01*
X88078667Y-81268123D01*
X88035461Y-81410555D01*
X87965298Y-81541820D01*
X87870875Y-81656875D01*
X87755820Y-81751298D01*
X87624555Y-81821461D01*
X87482123Y-81864667D01*
X87371120Y-81875600D01*
X85988880Y-81875600D01*
X85877877Y-81864667D01*
X85735445Y-81821461D01*
X85604180Y-81751298D01*
X85489125Y-81656875D01*
X85394702Y-81541820D01*
X85324539Y-81410555D01*
X85281333Y-81268123D01*
X85266744Y-81120000D01*
X85281333Y-80971877D01*
X85324539Y-80829445D01*
X85394702Y-80698180D01*
X85489125Y-80583125D01*
X85604180Y-80488702D01*
X85735445Y-80418539D01*
X85877877Y-80375333D01*
X85988880Y-80364400D01*
X87371120Y-80364400D01*
X87482123Y-80375333D01*
G37*
G36*
X191702123Y-80355333D02*
G01*
X191844555Y-80398539D01*
X191975820Y-80468702D01*
X192090875Y-80563125D01*
X192185298Y-80678180D01*
X192255461Y-80809445D01*
X192298667Y-80951877D01*
X192313256Y-81100000D01*
X192298667Y-81248123D01*
X192255461Y-81390555D01*
X192185298Y-81521820D01*
X192090875Y-81636875D01*
X191975820Y-81731298D01*
X191844555Y-81801461D01*
X191702123Y-81844667D01*
X191591120Y-81855600D01*
X190208880Y-81855600D01*
X190097877Y-81844667D01*
X189955445Y-81801461D01*
X189824180Y-81731298D01*
X189709125Y-81636875D01*
X189614702Y-81521820D01*
X189544539Y-81390555D01*
X189501333Y-81248123D01*
X189486744Y-81100000D01*
X189501333Y-80951877D01*
X189544539Y-80809445D01*
X189614702Y-80678180D01*
X189709125Y-80563125D01*
X189824180Y-80468702D01*
X189955445Y-80398539D01*
X190097877Y-80355333D01*
X190208880Y-80344400D01*
X191591120Y-80344400D01*
X191702123Y-80355333D01*
G37*
G36*
X164051000Y-81283500D02*
G01*
X161949000Y-81283500D01*
X161949000Y-79276500D01*
X164051000Y-79276500D01*
X164051000Y-81283500D01*
G37*
G36*
X87482123Y-77835333D02*
G01*
X87624555Y-77878539D01*
X87755820Y-77948702D01*
X87870875Y-78043125D01*
X87965298Y-78158180D01*
X88035461Y-78289445D01*
X88078667Y-78431877D01*
X88093256Y-78580000D01*
X88078667Y-78728123D01*
X88035461Y-78870555D01*
X87965298Y-79001820D01*
X87870875Y-79116875D01*
X87755820Y-79211298D01*
X87624555Y-79281461D01*
X87482123Y-79324667D01*
X87371120Y-79335600D01*
X85988880Y-79335600D01*
X85877877Y-79324667D01*
X85735445Y-79281461D01*
X85604180Y-79211298D01*
X85489125Y-79116875D01*
X85394702Y-79001820D01*
X85324539Y-78870555D01*
X85281333Y-78728123D01*
X85266744Y-78580000D01*
X85281333Y-78431877D01*
X85324539Y-78289445D01*
X85394702Y-78158180D01*
X85489125Y-78043125D01*
X85604180Y-77948702D01*
X85735445Y-77878539D01*
X85877877Y-77835333D01*
X85988880Y-77824400D01*
X87371120Y-77824400D01*
X87482123Y-77835333D01*
G37*
G36*
X163145936Y-76741340D02*
G01*
X163244220Y-76751020D01*
X163433381Y-76808401D01*
X163607712Y-76901583D01*
X163760515Y-77026985D01*
X163885917Y-77179788D01*
X163979099Y-77354119D01*
X164036480Y-77543280D01*
X164055855Y-77740000D01*
X164036480Y-77936720D01*
X163979099Y-78125881D01*
X163885917Y-78300212D01*
X163760515Y-78453015D01*
X163607712Y-78578417D01*
X163433381Y-78671599D01*
X163244220Y-78728980D01*
X163145936Y-78738660D01*
X163096795Y-78743500D01*
X162903205Y-78743500D01*
X162854064Y-78738660D01*
X162755780Y-78728980D01*
X162566619Y-78671599D01*
X162392288Y-78578417D01*
X162239485Y-78453015D01*
X162114083Y-78300212D01*
X162020901Y-78125881D01*
X161963520Y-77936720D01*
X161944145Y-77740000D01*
X161963520Y-77543280D01*
X162020901Y-77354119D01*
X162114083Y-77179788D01*
X162239485Y-77026985D01*
X162392288Y-76901583D01*
X162566619Y-76808401D01*
X162755780Y-76751020D01*
X162854064Y-76741340D01*
X162903205Y-76736500D01*
X163096795Y-76736500D01*
X163145936Y-76741340D01*
G37*
G36*
X185003256Y-76438434D02*
G01*
X185098947Y-76457468D01*
X185279225Y-76532142D01*
X185441471Y-76640551D01*
X185579449Y-76778529D01*
X185687858Y-76940775D01*
X185723568Y-77026985D01*
X185762532Y-77121054D01*
X185800600Y-77312433D01*
X185800600Y-77507567D01*
X185795137Y-77535029D01*
X185762532Y-77698947D01*
X185687858Y-77879225D01*
X185579449Y-78041471D01*
X185441471Y-78179449D01*
X185279225Y-78287858D01*
X185279224Y-78287859D01*
X185279223Y-78287859D01*
X185249400Y-78300212D01*
X185098947Y-78362532D01*
X184907567Y-78400600D01*
X184712433Y-78400600D01*
X184521053Y-78362532D01*
X184370600Y-78300212D01*
X184340777Y-78287859D01*
X184340776Y-78287859D01*
X184340775Y-78287858D01*
X184178529Y-78179449D01*
X184040551Y-78041471D01*
X183932142Y-77879225D01*
X183857468Y-77698947D01*
X183824863Y-77535029D01*
X183819400Y-77507567D01*
X183819400Y-77312433D01*
X183857468Y-77121054D01*
X183896433Y-77026985D01*
X183932142Y-76940775D01*
X184040551Y-76778529D01*
X184178529Y-76640551D01*
X184340775Y-76532142D01*
X184521053Y-76457468D01*
X184616744Y-76438434D01*
X184712433Y-76419400D01*
X184907567Y-76419400D01*
X185003256Y-76438434D01*
G37*
G36*
X82098671Y-74396098D02*
G01*
X82409798Y-74524971D01*
X82689805Y-74712066D01*
X82927934Y-74950195D01*
X83115029Y-75230202D01*
X83243902Y-75541329D01*
X83309600Y-75871618D01*
X83309600Y-76208382D01*
X83243902Y-76538671D01*
X83115029Y-76849798D01*
X82927934Y-77129805D01*
X82689805Y-77367934D01*
X82409798Y-77555029D01*
X82098671Y-77683902D01*
X81768382Y-77749600D01*
X81431618Y-77749600D01*
X81101329Y-77683902D01*
X80790202Y-77555029D01*
X80510195Y-77367934D01*
X80272066Y-77129805D01*
X80084971Y-76849798D01*
X79956098Y-76538671D01*
X79890400Y-76208382D01*
X79890400Y-75871618D01*
X79956098Y-75541329D01*
X80084971Y-75230202D01*
X80272066Y-74950195D01*
X80510195Y-74712066D01*
X80790202Y-74524971D01*
X81101329Y-74396098D01*
X81431618Y-74330400D01*
X81768382Y-74330400D01*
X82098671Y-74396098D01*
G37*
G36*
X196478671Y-74376098D02*
G01*
X196789798Y-74504971D01*
X197069805Y-74692066D01*
X197307934Y-74930195D01*
X197495029Y-75210202D01*
X197623902Y-75521329D01*
X197689600Y-75851618D01*
X197689600Y-76188382D01*
X197623902Y-76518671D01*
X197495029Y-76829798D01*
X197307934Y-77109805D01*
X197069805Y-77347934D01*
X196789798Y-77535029D01*
X196478671Y-77663902D01*
X196148382Y-77729600D01*
X195811618Y-77729600D01*
X195481329Y-77663902D01*
X195170202Y-77535029D01*
X194890195Y-77347934D01*
X194652066Y-77109805D01*
X194464971Y-76829798D01*
X194336098Y-76518671D01*
X194270400Y-76188382D01*
X194270400Y-75851618D01*
X194336098Y-75521329D01*
X194464971Y-75210202D01*
X194652066Y-74930195D01*
X194890195Y-74692066D01*
X195170202Y-74504971D01*
X195481329Y-74376098D01*
X195811618Y-74310400D01*
X196148382Y-74310400D01*
X196478671Y-74376098D01*
G37*
G36*
X163145936Y-74201340D02*
G01*
X163244220Y-74211020D01*
X163433381Y-74268401D01*
X163607712Y-74361583D01*
X163760515Y-74486985D01*
X163885917Y-74639788D01*
X163979099Y-74814119D01*
X164036480Y-75003280D01*
X164055855Y-75200000D01*
X164036480Y-75396720D01*
X163979099Y-75585881D01*
X163885917Y-75760212D01*
X163760515Y-75913015D01*
X163607712Y-76038417D01*
X163433381Y-76131599D01*
X163244220Y-76188980D01*
X163145936Y-76198660D01*
X163096795Y-76203500D01*
X162903205Y-76203500D01*
X162854064Y-76198660D01*
X162755780Y-76188980D01*
X162566619Y-76131599D01*
X162392288Y-76038417D01*
X162239485Y-75913015D01*
X162114083Y-75760212D01*
X162020901Y-75585881D01*
X161963520Y-75396720D01*
X161944145Y-75200000D01*
X161963520Y-75003280D01*
X162020901Y-74814119D01*
X162114083Y-74639788D01*
X162239485Y-74486985D01*
X162392288Y-74361583D01*
X162566619Y-74268401D01*
X162755780Y-74211020D01*
X162854064Y-74201340D01*
X162903205Y-74196500D01*
X163096795Y-74196500D01*
X163145936Y-74201340D01*
G37*
G36*
X145677395Y-74085546D02*
G01*
X145850466Y-74157234D01*
X145850467Y-74157235D01*
X146006227Y-74261310D01*
X146138690Y-74393773D01*
X146140244Y-74396099D01*
X146242766Y-74549534D01*
X146314454Y-74722605D01*
X146351000Y-74906333D01*
X146351000Y-75093667D01*
X146314454Y-75277395D01*
X146242766Y-75450466D01*
X146242765Y-75450467D01*
X146138690Y-75606227D01*
X146006227Y-75738690D01*
X145974018Y-75760211D01*
X145850466Y-75842766D01*
X145677395Y-75914454D01*
X145493667Y-75951000D01*
X145306333Y-75951000D01*
X145122605Y-75914454D01*
X144949534Y-75842766D01*
X144825982Y-75760211D01*
X144793773Y-75738690D01*
X144661310Y-75606227D01*
X144557235Y-75450467D01*
X144557234Y-75450466D01*
X144485546Y-75277395D01*
X144449000Y-75093667D01*
X144449000Y-74906333D01*
X144485546Y-74722605D01*
X144557234Y-74549534D01*
X144659756Y-74396099D01*
X144661310Y-74393773D01*
X144793773Y-74261310D01*
X144949533Y-74157235D01*
X144949534Y-74157234D01*
X145122605Y-74085546D01*
X145306333Y-74049000D01*
X145493667Y-74049000D01*
X145677395Y-74085546D01*
G37*
G36*
X142085487Y-68651996D02*
G01*
X142322253Y-68750068D01*
X142322255Y-68750069D01*
X142535339Y-68892447D01*
X142716553Y-69073661D01*
X142773261Y-69158530D01*
X142858932Y-69286747D01*
X142957004Y-69523513D01*
X143007000Y-69774861D01*
X143007000Y-70031139D01*
X142957004Y-70282487D01*
X142858932Y-70519253D01*
X142858931Y-70519255D01*
X142716553Y-70732339D01*
X142535339Y-70913553D01*
X142322255Y-71055931D01*
X142322254Y-71055932D01*
X142322253Y-71055932D01*
X142085487Y-71154004D01*
X141834139Y-71204000D01*
X141577861Y-71204000D01*
X141326513Y-71154004D01*
X141089747Y-71055932D01*
X141089746Y-71055932D01*
X141089745Y-71055931D01*
X140876661Y-70913553D01*
X140695447Y-70732339D01*
X140553069Y-70519255D01*
X140553068Y-70519253D01*
X140454996Y-70282487D01*
X140405000Y-70031139D01*
X140405000Y-69774861D01*
X140454996Y-69523513D01*
X140553068Y-69286747D01*
X140638740Y-69158530D01*
X140695447Y-69073661D01*
X140876661Y-68892447D01*
X141089745Y-68750069D01*
X141089747Y-68750068D01*
X141326513Y-68651996D01*
X141577861Y-68602000D01*
X141834139Y-68602000D01*
X142085487Y-68651996D01*
G37*
G36*
X177383256Y-68818434D02*
G01*
X177478947Y-68837468D01*
X177659225Y-68912142D01*
X177821471Y-69020551D01*
X177959449Y-69158529D01*
X178067858Y-69320775D01*
X178142532Y-69501053D01*
X178180600Y-69692434D01*
X178180600Y-69887566D01*
X178142532Y-70078947D01*
X178067858Y-70259225D01*
X177959449Y-70421471D01*
X177821471Y-70559449D01*
X177659225Y-70667858D01*
X177478947Y-70742532D01*
X177287567Y-70780600D01*
X177092433Y-70780600D01*
X176901053Y-70742532D01*
X176720775Y-70667858D01*
X176558529Y-70559449D01*
X176420551Y-70421471D01*
X176312142Y-70259225D01*
X176237468Y-70078947D01*
X176199400Y-69887566D01*
X176199400Y-69692434D01*
X176237468Y-69501053D01*
X176312142Y-69320775D01*
X176420551Y-69158529D01*
X176558529Y-69020551D01*
X176720775Y-68912142D01*
X176901053Y-68837468D01*
X176996744Y-68818434D01*
X177092433Y-68799400D01*
X177287567Y-68799400D01*
X177383256Y-68818434D01*
G37*
G36*
X124152615Y-67832339D02*
G01*
X124278947Y-67857468D01*
X124459225Y-67932142D01*
X124621471Y-68040551D01*
X124759449Y-68178529D01*
X124867858Y-68340775D01*
X124942532Y-68521053D01*
X124980600Y-68712434D01*
X124980600Y-68907566D01*
X124942532Y-69098947D01*
X124867858Y-69279225D01*
X124759449Y-69441471D01*
X124621471Y-69579449D01*
X124459225Y-69687858D01*
X124278947Y-69762532D01*
X124087567Y-69800600D01*
X123892433Y-69800600D01*
X123701053Y-69762532D01*
X123520775Y-69687858D01*
X123358529Y-69579449D01*
X123220551Y-69441471D01*
X123112142Y-69279225D01*
X123037468Y-69098947D01*
X122999400Y-68907566D01*
X122999400Y-68712434D01*
X123037468Y-68521053D01*
X123112142Y-68340775D01*
X123220551Y-68178529D01*
X123358529Y-68040551D01*
X123520775Y-67932142D01*
X123701053Y-67857468D01*
X123827385Y-67832339D01*
X123892433Y-67819400D01*
X124087567Y-67819400D01*
X124152615Y-67832339D01*
G37*
G36*
X144585487Y-65751996D02*
G01*
X144822253Y-65850068D01*
X144822255Y-65850069D01*
X145035339Y-65992447D01*
X145216553Y-66173661D01*
X145346117Y-66367567D01*
X145358932Y-66386747D01*
X145457004Y-66623513D01*
X145507000Y-66874861D01*
X145507000Y-67131139D01*
X145457004Y-67382487D01*
X145387203Y-67551000D01*
X145358931Y-67619255D01*
X145216553Y-67832339D01*
X145035339Y-68013553D01*
X144822255Y-68155931D01*
X144822254Y-68155932D01*
X144822253Y-68155932D01*
X144585487Y-68254004D01*
X144334139Y-68304000D01*
X144077861Y-68304000D01*
X143826513Y-68254004D01*
X143589747Y-68155932D01*
X143589746Y-68155932D01*
X143589745Y-68155931D01*
X143376661Y-68013553D01*
X143195447Y-67832339D01*
X143053069Y-67619255D01*
X143024797Y-67551000D01*
X142954996Y-67382487D01*
X142905000Y-67131139D01*
X142905000Y-66874861D01*
X142954996Y-66623513D01*
X143053068Y-66386747D01*
X143065884Y-66367567D01*
X143195447Y-66173661D01*
X143376661Y-65992447D01*
X143589745Y-65850069D01*
X143589747Y-65850068D01*
X143826513Y-65751996D01*
X144077861Y-65702000D01*
X144334139Y-65702000D01*
X144585487Y-65751996D01*
G37*
G36*
X139585487Y-65751996D02*
G01*
X139822253Y-65850068D01*
X139822255Y-65850069D01*
X140035339Y-65992447D01*
X140216553Y-66173661D01*
X140346117Y-66367567D01*
X140358932Y-66386747D01*
X140457004Y-66623513D01*
X140507000Y-66874861D01*
X140507000Y-67131139D01*
X140457004Y-67382487D01*
X140387203Y-67551000D01*
X140358931Y-67619255D01*
X140216553Y-67832339D01*
X140035339Y-68013553D01*
X139822255Y-68155931D01*
X139822254Y-68155932D01*
X139822253Y-68155932D01*
X139585487Y-68254004D01*
X139334139Y-68304000D01*
X139077861Y-68304000D01*
X138826513Y-68254004D01*
X138589747Y-68155932D01*
X138589746Y-68155932D01*
X138589745Y-68155931D01*
X138376661Y-68013553D01*
X138195447Y-67832339D01*
X138053069Y-67619255D01*
X138024797Y-67551000D01*
X137954996Y-67382487D01*
X137905000Y-67131139D01*
X137905000Y-66874861D01*
X137954996Y-66623513D01*
X138053068Y-66386747D01*
X138065884Y-66367567D01*
X138195447Y-66173661D01*
X138376661Y-65992447D01*
X138589745Y-65850069D01*
X138589747Y-65850068D01*
X138826513Y-65751996D01*
X139077861Y-65702000D01*
X139334139Y-65702000D01*
X139585487Y-65751996D01*
G37*
G36*
X160136693Y-62101859D02*
G01*
X160402437Y-62154719D01*
X160903087Y-62362095D01*
X161083561Y-62482684D01*
X161353660Y-62663158D01*
X161736842Y-63046340D01*
X161866609Y-63240551D01*
X162037905Y-63496913D01*
X162245281Y-63997563D01*
X162351000Y-64529050D01*
X162351000Y-65070950D01*
X162245281Y-65602437D01*
X162037905Y-66103087D01*
X161917316Y-66283561D01*
X161736842Y-66553660D01*
X161353660Y-66936842D01*
X161200097Y-67039449D01*
X160903087Y-67237905D01*
X160402437Y-67445281D01*
X160136694Y-67498140D01*
X159870951Y-67551000D01*
X159329049Y-67551000D01*
X159063306Y-67498140D01*
X158797563Y-67445281D01*
X158296913Y-67237905D01*
X157999903Y-67039449D01*
X157846340Y-66936842D01*
X157463158Y-66553660D01*
X157282684Y-66283561D01*
X157162095Y-66103087D01*
X156954719Y-65602437D01*
X156849000Y-65070950D01*
X156849000Y-64529050D01*
X156954719Y-63997563D01*
X157162095Y-63496913D01*
X157333391Y-63240551D01*
X157463158Y-63046340D01*
X157846340Y-62663158D01*
X158116439Y-62482684D01*
X158296913Y-62362095D01*
X158797563Y-62154719D01*
X159063307Y-62101859D01*
X159329049Y-62049000D01*
X159870951Y-62049000D01*
X160136693Y-62101859D01*
G37*
G36*
X124183256Y-65298434D02*
G01*
X124278947Y-65317468D01*
X124459225Y-65392142D01*
X124621471Y-65500551D01*
X124759449Y-65638529D01*
X124867858Y-65800775D01*
X124942532Y-65981053D01*
X124980600Y-66172434D01*
X124980600Y-66367566D01*
X124942532Y-66558947D01*
X124867858Y-66739225D01*
X124759449Y-66901471D01*
X124621471Y-67039449D01*
X124459225Y-67147858D01*
X124278947Y-67222532D01*
X124087567Y-67260600D01*
X123892433Y-67260600D01*
X123701053Y-67222532D01*
X123520775Y-67147858D01*
X123358529Y-67039449D01*
X123220551Y-66901471D01*
X123112142Y-66739225D01*
X123037468Y-66558947D01*
X122999400Y-66367566D01*
X122999400Y-66172434D01*
X123037468Y-65981053D01*
X123112142Y-65800775D01*
X123220551Y-65638529D01*
X123358529Y-65500551D01*
X123520775Y-65392142D01*
X123701053Y-65317468D01*
X123796744Y-65298434D01*
X123892433Y-65279400D01*
X124087567Y-65279400D01*
X124183256Y-65298434D01*
G37*
G36*
X185098947Y-63057468D02*
G01*
X185279225Y-63132142D01*
X185441471Y-63240551D01*
X185579449Y-63378529D01*
X185687858Y-63540775D01*
X185762532Y-63721053D01*
X185800600Y-63912434D01*
X185800600Y-64107566D01*
X185762532Y-64298947D01*
X185687858Y-64479225D01*
X185579449Y-64641471D01*
X185441471Y-64779449D01*
X185279225Y-64887858D01*
X185098947Y-64962532D01*
X185003256Y-64981566D01*
X184907567Y-65000600D01*
X184712433Y-65000600D01*
X184616744Y-64981566D01*
X184521053Y-64962532D01*
X184340775Y-64887858D01*
X184178529Y-64779449D01*
X184040551Y-64641471D01*
X183932142Y-64479225D01*
X183857468Y-64298947D01*
X183819400Y-64107566D01*
X183819400Y-63912434D01*
X183857468Y-63721053D01*
X183932142Y-63540775D01*
X184040551Y-63378529D01*
X184178529Y-63240551D01*
X184340775Y-63132142D01*
X184521053Y-63057468D01*
X184712433Y-63019400D01*
X184907567Y-63019400D01*
X185098947Y-63057468D01*
G37*
G36*
X131803256Y-62758434D02*
G01*
X131898947Y-62777468D01*
X132079225Y-62852142D01*
X132241471Y-62960551D01*
X132379449Y-63098529D01*
X132487858Y-63260775D01*
X132562532Y-63441053D01*
X132600600Y-63632434D01*
X132600600Y-63827566D01*
X132562532Y-64018947D01*
X132487858Y-64199225D01*
X132379449Y-64361471D01*
X132241471Y-64499449D01*
X132079225Y-64607858D01*
X131898947Y-64682532D01*
X131803256Y-64701566D01*
X131707567Y-64720600D01*
X131512433Y-64720600D01*
X131416744Y-64701566D01*
X131321053Y-64682532D01*
X131140775Y-64607858D01*
X130978529Y-64499449D01*
X130840551Y-64361471D01*
X130732142Y-64199225D01*
X130657468Y-64018947D01*
X130619400Y-63827566D01*
X130619400Y-63632434D01*
X130657468Y-63441053D01*
X130732142Y-63260775D01*
X130840551Y-63098529D01*
X130978529Y-62960551D01*
X131140775Y-62852142D01*
X131321053Y-62777468D01*
X131416744Y-62758434D01*
X131512433Y-62739400D01*
X131707567Y-62739400D01*
X131803256Y-62758434D01*
G37*
G36*
X131803256Y-60218434D02*
G01*
X131898947Y-60237468D01*
X132079225Y-60312142D01*
X132241471Y-60420551D01*
X132379449Y-60558529D01*
X132487858Y-60720775D01*
X132562532Y-60901053D01*
X132600600Y-61092434D01*
X132600600Y-61287566D01*
X132562532Y-61478947D01*
X132487858Y-61659225D01*
X132379449Y-61821471D01*
X132241471Y-61959449D01*
X132079225Y-62067858D01*
X131898947Y-62142532D01*
X131803256Y-62161566D01*
X131707567Y-62180600D01*
X131512433Y-62180600D01*
X131416744Y-62161566D01*
X131321053Y-62142532D01*
X131140775Y-62067858D01*
X130978529Y-61959449D01*
X130840551Y-61821471D01*
X130732142Y-61659225D01*
X130657468Y-61478947D01*
X130619400Y-61287566D01*
X130619400Y-61092434D01*
X130657468Y-60901053D01*
X130732142Y-60720775D01*
X130840551Y-60558529D01*
X130978529Y-60420551D01*
X131140775Y-60312142D01*
X131321053Y-60237468D01*
X131416744Y-60218434D01*
X131512433Y-60199400D01*
X131707567Y-60199400D01*
X131803256Y-60218434D01*
G37*
G36*
X89951000Y-61309750D02*
G01*
X88049000Y-61309750D01*
X88049000Y-59490250D01*
X89951000Y-59490250D01*
X89951000Y-61309750D01*
G37*
G36*
X89152763Y-57206832D02*
G01*
X89219592Y-57213414D01*
X89346459Y-57251899D01*
X89391084Y-57265436D01*
X89549121Y-57349908D01*
X89687652Y-57463598D01*
X89801342Y-57602129D01*
X89885814Y-57760166D01*
X89885815Y-57760170D01*
X89937836Y-57931658D01*
X89955401Y-58110000D01*
X89937836Y-58288342D01*
X89899351Y-58415209D01*
X89885814Y-58459834D01*
X89801342Y-58617871D01*
X89687652Y-58756402D01*
X89549121Y-58870092D01*
X89391084Y-58954564D01*
X89346459Y-58968101D01*
X89219592Y-59006586D01*
X89152763Y-59013168D01*
X89085936Y-59019750D01*
X88914064Y-59019750D01*
X88847237Y-59013168D01*
X88780408Y-59006586D01*
X88653541Y-58968101D01*
X88608916Y-58954564D01*
X88450879Y-58870092D01*
X88312348Y-58756402D01*
X88198658Y-58617871D01*
X88114186Y-58459834D01*
X88100649Y-58415209D01*
X88062164Y-58288342D01*
X88044599Y-58110000D01*
X88062164Y-57931658D01*
X88114185Y-57760170D01*
X88114186Y-57760166D01*
X88198658Y-57602129D01*
X88312348Y-57463598D01*
X88450879Y-57349908D01*
X88608916Y-57265436D01*
X88653541Y-57251899D01*
X88780408Y-57213414D01*
X88847237Y-57206832D01*
X88914064Y-57200250D01*
X89085936Y-57200250D01*
X89152763Y-57206832D01*
G37*
G36*
X177383256Y-55418434D02*
G01*
X177478947Y-55437468D01*
X177659225Y-55512142D01*
X177821471Y-55620551D01*
X177959449Y-55758529D01*
X178067858Y-55920775D01*
X178142532Y-56101053D01*
X178180600Y-56292434D01*
X178180600Y-56487566D01*
X178142532Y-56678947D01*
X178067858Y-56859225D01*
X177959449Y-57021471D01*
X177821471Y-57159449D01*
X177659225Y-57267858D01*
X177478947Y-57342532D01*
X177441865Y-57349908D01*
X177287567Y-57380600D01*
X177092433Y-57380600D01*
X176938135Y-57349908D01*
X176901053Y-57342532D01*
X176720775Y-57267858D01*
X176558529Y-57159449D01*
X176420551Y-57021471D01*
X176312142Y-56859225D01*
X176237468Y-56678947D01*
X176199400Y-56487566D01*
X176199400Y-56292434D01*
X176237468Y-56101053D01*
X176312142Y-55920775D01*
X176420551Y-55758529D01*
X176558529Y-55620551D01*
X176720775Y-55512142D01*
X176901053Y-55437468D01*
X176996744Y-55418434D01*
X177092433Y-55399400D01*
X177287567Y-55399400D01*
X177383256Y-55418434D01*
G37*
G36*
X89152763Y-54916832D02*
G01*
X89219592Y-54923414D01*
X89346459Y-54961899D01*
X89391084Y-54975436D01*
X89549121Y-55059908D01*
X89549124Y-55059910D01*
X89549125Y-55059911D01*
X89687652Y-55173598D01*
X89772439Y-55276910D01*
X89801342Y-55312129D01*
X89885814Y-55470166D01*
X89885815Y-55470170D01*
X89937836Y-55641658D01*
X89955401Y-55820000D01*
X89937836Y-55998342D01*
X89906678Y-56101054D01*
X89885814Y-56169834D01*
X89801342Y-56327871D01*
X89801340Y-56327874D01*
X89801339Y-56327875D01*
X89687652Y-56466402D01*
X89661863Y-56487567D01*
X89549121Y-56580092D01*
X89391084Y-56664564D01*
X89346459Y-56678101D01*
X89219592Y-56716586D01*
X89152763Y-56723168D01*
X89085936Y-56729750D01*
X88914064Y-56729750D01*
X88847237Y-56723168D01*
X88780408Y-56716586D01*
X88653541Y-56678101D01*
X88608916Y-56664564D01*
X88450879Y-56580092D01*
X88338138Y-56487567D01*
X88312348Y-56466402D01*
X88198661Y-56327875D01*
X88198660Y-56327874D01*
X88198658Y-56327871D01*
X88114186Y-56169834D01*
X88093322Y-56101054D01*
X88062164Y-55998342D01*
X88044599Y-55820000D01*
X88062164Y-55641658D01*
X88114185Y-55470170D01*
X88114186Y-55470166D01*
X88198658Y-55312129D01*
X88227562Y-55276910D01*
X88312348Y-55173598D01*
X88450875Y-55059911D01*
X88450876Y-55059910D01*
X88450879Y-55059908D01*
X88608916Y-54975436D01*
X88653541Y-54961899D01*
X88780408Y-54923414D01*
X88847237Y-54916832D01*
X88914064Y-54910250D01*
X89085936Y-54910250D01*
X89152763Y-54916832D01*
G37*
G36*
X84339360Y-50951600D02*
G01*
X84565078Y-50996498D01*
X84792855Y-51090846D01*
X84997849Y-51227819D01*
X85172181Y-51402151D01*
X85309154Y-51607145D01*
X85403502Y-51834922D01*
X85451600Y-52076728D01*
X85451600Y-52323272D01*
X85403502Y-52565078D01*
X85309154Y-52792855D01*
X85172181Y-52997849D01*
X84997849Y-53172181D01*
X84792855Y-53309154D01*
X84610914Y-53384516D01*
X84589303Y-53396067D01*
X84570361Y-53411612D01*
X84554816Y-53430554D01*
X84543265Y-53452165D01*
X84536152Y-53475614D01*
X84533750Y-53500000D01*
X84536152Y-53524386D01*
X84543265Y-53547835D01*
X84554816Y-53569446D01*
X84570361Y-53588388D01*
X84589303Y-53603933D01*
X84610913Y-53615483D01*
X84792855Y-53690846D01*
X84997849Y-53827819D01*
X85172181Y-54002151D01*
X85309154Y-54207145D01*
X85403502Y-54434922D01*
X85451600Y-54676728D01*
X85451600Y-54923272D01*
X85403502Y-55165078D01*
X85309154Y-55392855D01*
X85172181Y-55597849D01*
X84997849Y-55772181D01*
X84792855Y-55909154D01*
X84565078Y-56003502D01*
X84444175Y-56027551D01*
X84323273Y-56051600D01*
X84076727Y-56051600D01*
X83955825Y-56027551D01*
X83834922Y-56003502D01*
X83607145Y-55909154D01*
X83402151Y-55772181D01*
X83227819Y-55597849D01*
X83090846Y-55392855D01*
X82996498Y-55165078D01*
X82948400Y-54923272D01*
X82948400Y-54676728D01*
X82996498Y-54434922D01*
X83090846Y-54207145D01*
X83227819Y-54002151D01*
X83402151Y-53827819D01*
X83607145Y-53690846D01*
X83789087Y-53615483D01*
X83810697Y-53603933D01*
X83829639Y-53588388D01*
X83845184Y-53569446D01*
X83856735Y-53547835D01*
X83863848Y-53524386D01*
X83866250Y-53500000D01*
X83863848Y-53475614D01*
X83856735Y-53452165D01*
X83845184Y-53430554D01*
X83829639Y-53411612D01*
X83810697Y-53396067D01*
X83789086Y-53384516D01*
X83607145Y-53309154D01*
X83402151Y-53172181D01*
X83227819Y-52997849D01*
X83090846Y-52792855D01*
X82996498Y-52565078D01*
X82948400Y-52323272D01*
X82948400Y-52076728D01*
X82996498Y-51834922D01*
X83090846Y-51607145D01*
X83227819Y-51402151D01*
X83402151Y-51227819D01*
X83607145Y-51090846D01*
X83834922Y-50996498D01*
X84060640Y-50951600D01*
X84076727Y-50948400D01*
X84323273Y-50948400D01*
X84339360Y-50951600D01*
G37*
G36*
X79389890Y-54074017D02*
G01*
X79508364Y-54123091D01*
X79614988Y-54194335D01*
X79705665Y-54285012D01*
X79776909Y-54391636D01*
X79825983Y-54510110D01*
X79851000Y-54635882D01*
X79851000Y-54764118D01*
X79825983Y-54889890D01*
X79776909Y-55008364D01*
X79705665Y-55114988D01*
X79614988Y-55205665D01*
X79508364Y-55276909D01*
X79508363Y-55276910D01*
X79508362Y-55276910D01*
X79389890Y-55325983D01*
X79264119Y-55351000D01*
X79135881Y-55351000D01*
X79010110Y-55325983D01*
X78891638Y-55276910D01*
X78891637Y-55276910D01*
X78891636Y-55276909D01*
X78785012Y-55205665D01*
X78694335Y-55114988D01*
X78623091Y-55008364D01*
X78574017Y-54889890D01*
X78549000Y-54764118D01*
X78549000Y-54635882D01*
X78574017Y-54510110D01*
X78623091Y-54391636D01*
X78694335Y-54285012D01*
X78785012Y-54194335D01*
X78891636Y-54123091D01*
X79010110Y-54074017D01*
X79135881Y-54049000D01*
X79264119Y-54049000D01*
X79389890Y-54074017D01*
G37*
G36*
X76889890Y-54074017D02*
G01*
X77008364Y-54123091D01*
X77114988Y-54194335D01*
X77205665Y-54285012D01*
X77276909Y-54391636D01*
X77325983Y-54510110D01*
X77351000Y-54635882D01*
X77351000Y-54764118D01*
X77325983Y-54889890D01*
X77276909Y-55008364D01*
X77205665Y-55114988D01*
X77114988Y-55205665D01*
X77008364Y-55276909D01*
X77008363Y-55276910D01*
X77008362Y-55276910D01*
X76889890Y-55325983D01*
X76764119Y-55351000D01*
X76635881Y-55351000D01*
X76510110Y-55325983D01*
X76391638Y-55276910D01*
X76391637Y-55276910D01*
X76391636Y-55276909D01*
X76285012Y-55205665D01*
X76194335Y-55114988D01*
X76123091Y-55008364D01*
X76074017Y-54889890D01*
X76049000Y-54764118D01*
X76049000Y-54635882D01*
X76074017Y-54510110D01*
X76123091Y-54391636D01*
X76194335Y-54285012D01*
X76285012Y-54194335D01*
X76391636Y-54123091D01*
X76510110Y-54074017D01*
X76635881Y-54049000D01*
X76764119Y-54049000D01*
X76889890Y-54074017D01*
G37*
G36*
X167038256Y-51772434D02*
G01*
X167133947Y-51791468D01*
X167314225Y-51866142D01*
X167476471Y-51974551D01*
X167614449Y-52112529D01*
X167722858Y-52274775D01*
X167797532Y-52455053D01*
X167835600Y-52646434D01*
X167835600Y-52841566D01*
X167797532Y-53032947D01*
X167722858Y-53213225D01*
X167614449Y-53375471D01*
X167476471Y-53513449D01*
X167314225Y-53621858D01*
X167133947Y-53696532D01*
X166942567Y-53734600D01*
X166747433Y-53734600D01*
X166556053Y-53696532D01*
X166375775Y-53621858D01*
X166213529Y-53513449D01*
X166075551Y-53375471D01*
X165967142Y-53213225D01*
X165892468Y-53032947D01*
X165854400Y-52841566D01*
X165854400Y-52646434D01*
X165892468Y-52455053D01*
X165967142Y-52274775D01*
X166075551Y-52112529D01*
X166213529Y-51974551D01*
X166375775Y-51866142D01*
X166556053Y-51791468D01*
X166651744Y-51772434D01*
X166747433Y-51753400D01*
X166942567Y-51753400D01*
X167038256Y-51772434D01*
G37*
G36*
X79339360Y-48451600D02*
G01*
X79565078Y-48496498D01*
X79792855Y-48590846D01*
X79997849Y-48727819D01*
X80172181Y-48902151D01*
X80309154Y-49107145D01*
X80403502Y-49334922D01*
X80451600Y-49576728D01*
X80451600Y-49823272D01*
X80403502Y-50065078D01*
X80309154Y-50292855D01*
X80172181Y-50497849D01*
X79997849Y-50672181D01*
X79792855Y-50809154D01*
X79565078Y-50903502D01*
X79444175Y-50927551D01*
X79323273Y-50951600D01*
X79076727Y-50951600D01*
X78955825Y-50927551D01*
X78834922Y-50903502D01*
X78607145Y-50809154D01*
X78402151Y-50672181D01*
X78227819Y-50497849D01*
X78090846Y-50292855D01*
X77996498Y-50065078D01*
X77948400Y-49823272D01*
X77948400Y-49576728D01*
X77996498Y-49334922D01*
X78090846Y-49107145D01*
X78227819Y-48902151D01*
X78402151Y-48727819D01*
X78607145Y-48590846D01*
X78834922Y-48496498D01*
X79060640Y-48451600D01*
X79076727Y-48448400D01*
X79323273Y-48448400D01*
X79339360Y-48451600D01*
G37*
G36*
X84389890Y-49074017D02*
G01*
X84469868Y-49107145D01*
X84508364Y-49123091D01*
X84614988Y-49194335D01*
X84705665Y-49285012D01*
X84776909Y-49391636D01*
X84825983Y-49510110D01*
X84851000Y-49635882D01*
X84851000Y-49764118D01*
X84825983Y-49889890D01*
X84776909Y-50008364D01*
X84705665Y-50114988D01*
X84614988Y-50205665D01*
X84508364Y-50276909D01*
X84508363Y-50276910D01*
X84508362Y-50276910D01*
X84389890Y-50325983D01*
X84264119Y-50351000D01*
X84135881Y-50351000D01*
X84010110Y-50325983D01*
X83891638Y-50276910D01*
X83891637Y-50276910D01*
X83891636Y-50276909D01*
X83785012Y-50205665D01*
X83694335Y-50114988D01*
X83623091Y-50008364D01*
X83574017Y-49889890D01*
X83549000Y-49764118D01*
X83549000Y-49635882D01*
X83574017Y-49510110D01*
X83623091Y-49391636D01*
X83694335Y-49285012D01*
X83785012Y-49194335D01*
X83891636Y-49123091D01*
X83930133Y-49107145D01*
X84010110Y-49074017D01*
X84135881Y-49049000D01*
X84264119Y-49049000D01*
X84389890Y-49074017D01*
G37*
G36*
X84444175Y-43372449D02*
G01*
X84565078Y-43396498D01*
X84792855Y-43490846D01*
X84997849Y-43627819D01*
X85172181Y-43802151D01*
X85309154Y-44007145D01*
X85403502Y-44234922D01*
X85451600Y-44476728D01*
X85451600Y-44723272D01*
X85403502Y-44965078D01*
X85309154Y-45192855D01*
X85172181Y-45397849D01*
X84997849Y-45572181D01*
X84792855Y-45709154D01*
X84610914Y-45784516D01*
X84589303Y-45796067D01*
X84570361Y-45811612D01*
X84554816Y-45830554D01*
X84543265Y-45852165D01*
X84536152Y-45875614D01*
X84533750Y-45900000D01*
X84536152Y-45924386D01*
X84543265Y-45947835D01*
X84554816Y-45969446D01*
X84570361Y-45988388D01*
X84589303Y-46003933D01*
X84610913Y-46015483D01*
X84792855Y-46090846D01*
X84997849Y-46227819D01*
X85172181Y-46402151D01*
X85309154Y-46607145D01*
X85403502Y-46834922D01*
X85451600Y-47076728D01*
X85451600Y-47323272D01*
X85403502Y-47565078D01*
X85309154Y-47792855D01*
X85172181Y-47997849D01*
X84997849Y-48172181D01*
X84792855Y-48309154D01*
X84565078Y-48403502D01*
X84444175Y-48427551D01*
X84323273Y-48451600D01*
X84076727Y-48451600D01*
X83955825Y-48427551D01*
X83834922Y-48403502D01*
X83607145Y-48309154D01*
X83402151Y-48172181D01*
X83227819Y-47997849D01*
X83090846Y-47792855D01*
X82996498Y-47565078D01*
X82948400Y-47323272D01*
X82948400Y-47076728D01*
X82996498Y-46834922D01*
X83090846Y-46607145D01*
X83227819Y-46402151D01*
X83402151Y-46227819D01*
X83607145Y-46090846D01*
X83789087Y-46015483D01*
X83810697Y-46003933D01*
X83829639Y-45988388D01*
X83845184Y-45969446D01*
X83856735Y-45947835D01*
X83863848Y-45924386D01*
X83866250Y-45900000D01*
X83863848Y-45875614D01*
X83856735Y-45852165D01*
X83845184Y-45830554D01*
X83829639Y-45811612D01*
X83810697Y-45796067D01*
X83789086Y-45784516D01*
X83607145Y-45709154D01*
X83402151Y-45572181D01*
X83227819Y-45397849D01*
X83090846Y-45192855D01*
X82996498Y-44965078D01*
X82948400Y-44723272D01*
X82948400Y-44476728D01*
X82996498Y-44234922D01*
X83090846Y-44007145D01*
X83227819Y-43802151D01*
X83402151Y-43627819D01*
X83607145Y-43490846D01*
X83834922Y-43396498D01*
X83955825Y-43372449D01*
X84076727Y-43348400D01*
X84323273Y-43348400D01*
X84444175Y-43372449D01*
G37*
G36*
X157390165Y-43627819D02*
G01*
X157488947Y-43647468D01*
X157669225Y-43722142D01*
X157831471Y-43830551D01*
X157969449Y-43968529D01*
X158077858Y-44130775D01*
X158152532Y-44311053D01*
X158190600Y-44502434D01*
X158190600Y-44697566D01*
X158152532Y-44888947D01*
X158077858Y-45069225D01*
X157969449Y-45231471D01*
X157831471Y-45369449D01*
X157669225Y-45477858D01*
X157488947Y-45552532D01*
X157297567Y-45590600D01*
X157102433Y-45590600D01*
X156911053Y-45552532D01*
X156730775Y-45477858D01*
X156568529Y-45369449D01*
X156430551Y-45231471D01*
X156322142Y-45069225D01*
X156247468Y-44888947D01*
X156209400Y-44697566D01*
X156209400Y-44502434D01*
X156247468Y-44311053D01*
X156322142Y-44130775D01*
X156430551Y-43968529D01*
X156568529Y-43830551D01*
X156730775Y-43722142D01*
X156911053Y-43647468D01*
X157009835Y-43627819D01*
X157102433Y-43609400D01*
X157297567Y-43609400D01*
X157390165Y-43627819D01*
G37*
G36*
X76889890Y-44074017D02*
G01*
X77008364Y-44123091D01*
X77114988Y-44194335D01*
X77205665Y-44285012D01*
X77276909Y-44391636D01*
X77325983Y-44510110D01*
X77351000Y-44635882D01*
X77351000Y-44764118D01*
X77325983Y-44889890D01*
X77276909Y-45008364D01*
X77205665Y-45114988D01*
X77114988Y-45205665D01*
X77008364Y-45276909D01*
X77008363Y-45276910D01*
X77008362Y-45276910D01*
X76889890Y-45325983D01*
X76764119Y-45351000D01*
X76635881Y-45351000D01*
X76510110Y-45325983D01*
X76391638Y-45276910D01*
X76391637Y-45276910D01*
X76391636Y-45276909D01*
X76285012Y-45205665D01*
X76194335Y-45114988D01*
X76123091Y-45008364D01*
X76074017Y-44889890D01*
X76049000Y-44764118D01*
X76049000Y-44635882D01*
X76074017Y-44510110D01*
X76123091Y-44391636D01*
X76194335Y-44285012D01*
X76285012Y-44194335D01*
X76391636Y-44123091D01*
X76510110Y-44074017D01*
X76635881Y-44049000D01*
X76764119Y-44049000D01*
X76889890Y-44074017D01*
G37*
G36*
X79389890Y-44074017D02*
G01*
X79508364Y-44123091D01*
X79614988Y-44194335D01*
X79705665Y-44285012D01*
X79776909Y-44391636D01*
X79825983Y-44510110D01*
X79851000Y-44635882D01*
X79851000Y-44764118D01*
X79825983Y-44889890D01*
X79776909Y-45008364D01*
X79705665Y-45114988D01*
X79614988Y-45205665D01*
X79508364Y-45276909D01*
X79508363Y-45276910D01*
X79508362Y-45276910D01*
X79389890Y-45325983D01*
X79264119Y-45351000D01*
X79135881Y-45351000D01*
X79010110Y-45325983D01*
X78891638Y-45276910D01*
X78891637Y-45276910D01*
X78891636Y-45276909D01*
X78785012Y-45205665D01*
X78694335Y-45114988D01*
X78623091Y-45008364D01*
X78574017Y-44889890D01*
X78549000Y-44764118D01*
X78549000Y-44635882D01*
X78574017Y-44510110D01*
X78623091Y-44391636D01*
X78694335Y-44285012D01*
X78785012Y-44194335D01*
X78891636Y-44123091D01*
X79010110Y-44074017D01*
X79135881Y-44049000D01*
X79264119Y-44049000D01*
X79389890Y-44074017D01*
G37*
G36*
X84376979Y-36213293D02*
G01*
X84510625Y-36253834D01*
X84633784Y-36319664D01*
X84741740Y-36408260D01*
X84830336Y-36516216D01*
X84896166Y-36639375D01*
X84936707Y-36773021D01*
X84951000Y-36918140D01*
X84951000Y-39081860D01*
X84936707Y-39226979D01*
X84896166Y-39360625D01*
X84830336Y-39483784D01*
X84741740Y-39591740D01*
X84633784Y-39680336D01*
X84510625Y-39746166D01*
X84376979Y-39786707D01*
X84231860Y-39801000D01*
X82568140Y-39801000D01*
X82423021Y-39786707D01*
X82289375Y-39746166D01*
X82166216Y-39680336D01*
X82058260Y-39591740D01*
X81969664Y-39483784D01*
X81903834Y-39360625D01*
X81863293Y-39226979D01*
X81849000Y-39081860D01*
X81849000Y-36918140D01*
X81863293Y-36773021D01*
X81903834Y-36639375D01*
X81969664Y-36516216D01*
X82058260Y-36408260D01*
X82166216Y-36319664D01*
X82289375Y-36253834D01*
X82423021Y-36213293D01*
X82568140Y-36199000D01*
X84231860Y-36199000D01*
X84376979Y-36213293D01*
G37*
G36*
X91201000Y-39801000D02*
G01*
X87599000Y-39801000D01*
X87599000Y-36199000D01*
X91201000Y-36199000D01*
X91201000Y-39801000D01*
G37*
G36*
X87526366Y-31515695D02*
G01*
X87683460Y-31563349D01*
X87828231Y-31640731D01*
X87955128Y-31744872D01*
X88059269Y-31871769D01*
X88136651Y-32016540D01*
X88184305Y-32173634D01*
X88201000Y-32343140D01*
X88201000Y-34256860D01*
X88184305Y-34426366D01*
X88136651Y-34583460D01*
X88059269Y-34728231D01*
X87955128Y-34855128D01*
X87828231Y-34959269D01*
X87683460Y-35036651D01*
X87526366Y-35084305D01*
X87356860Y-35101000D01*
X85443140Y-35101000D01*
X85273634Y-35084305D01*
X85116540Y-35036651D01*
X84971769Y-34959269D01*
X84844872Y-34855128D01*
X84740731Y-34728231D01*
X84663349Y-34583460D01*
X84615695Y-34426366D01*
X84599000Y-34256860D01*
X84599000Y-32343140D01*
X84615695Y-32173634D01*
X84663349Y-32016540D01*
X84740731Y-31871769D01*
X84844872Y-31744872D01*
X84971769Y-31640731D01*
X85116540Y-31563349D01*
X85273634Y-31515695D01*
X85443140Y-31499000D01*
X87356860Y-31499000D01*
X87526366Y-31515695D01*
G37*
G36*
X79575256Y-21791298D02*
G01*
X79681579Y-21812447D01*
X79982042Y-21936903D01*
X80252451Y-22117585D01*
X80482415Y-22347549D01*
X80482416Y-22347551D01*
X80663098Y-22617960D01*
X80787553Y-22918422D01*
X80851000Y-23237389D01*
X80851000Y-23562611D01*
X80808702Y-23775256D01*
X80787553Y-23881579D01*
X80663097Y-24182042D01*
X80482415Y-24452451D01*
X80252451Y-24682415D01*
X79982042Y-24863097D01*
X79681579Y-24987553D01*
X79575256Y-25008702D01*
X79362611Y-25051000D01*
X79037389Y-25051000D01*
X78824744Y-25008702D01*
X78718421Y-24987553D01*
X78417958Y-24863097D01*
X78147549Y-24682415D01*
X77917585Y-24452451D01*
X77736903Y-24182042D01*
X77612447Y-23881579D01*
X77591298Y-23775256D01*
X77549000Y-23562611D01*
X77549000Y-23237389D01*
X77612447Y-22918422D01*
X77736902Y-22617960D01*
X77917584Y-22347551D01*
X77917585Y-22347549D01*
X78147549Y-22117585D01*
X78417958Y-21936903D01*
X78718421Y-21812447D01*
X78824744Y-21791298D01*
X79037389Y-21749000D01*
X79362611Y-21749000D01*
X79575256Y-21791298D01*
G37*
G36*
X198975256Y-21591298D02*
G01*
X199081579Y-21612447D01*
X199382042Y-21736903D01*
X199652451Y-21917585D01*
X199882415Y-22147549D01*
X200063097Y-22417958D01*
X200145941Y-22617960D01*
X200187553Y-22718422D01*
X200227336Y-22918421D01*
X200251000Y-23037391D01*
X200251000Y-23362609D01*
X200187553Y-23681579D01*
X200063097Y-23982042D01*
X199882415Y-24252451D01*
X199652451Y-24482415D01*
X199382042Y-24663097D01*
X199081579Y-24787553D01*
X198975256Y-24808702D01*
X198762611Y-24851000D01*
X198437389Y-24851000D01*
X198224744Y-24808702D01*
X198118421Y-24787553D01*
X197817958Y-24663097D01*
X197547549Y-24482415D01*
X197317585Y-24252451D01*
X197136903Y-23982042D01*
X197012447Y-23681579D01*
X196949000Y-23362609D01*
X196949000Y-23037391D01*
X196972665Y-22918421D01*
X197012447Y-22718422D01*
X197054060Y-22617960D01*
X197136903Y-22417958D01*
X197317585Y-22147549D01*
X197547549Y-21917585D01*
X197817958Y-21736903D01*
X198118421Y-21612447D01*
X198224744Y-21591298D01*
X198437389Y-21549000D01*
X198762611Y-21549000D01*
X198975256Y-21591298D01*
G37*
M02*
