%FSLAX45Y45*%
G04 Gerber Fmt 4.5, Leading zero omitted, Abs format (unit mm)*
G04 Created by KiCad (PCBNEW (5.1.5)-3) date 2021-07-16 13:31:35*
%MOMM*%
%LPD*%
G04 APERTURE LIST*
%TA.AperFunction,Profile*%
%ADD10C,0.100000*%
%TD*%
%ADD11C,0.200000*%
%ADD12C,0.300000*%
G04 APERTURE END LIST*
D10*
X20200000Y-1980000D02*
X20200000Y-10140000D01*
X7560000Y-1980000D02*
X20200000Y-1980000D01*
X7560000Y-10140000D02*
X7560000Y-1980000D01*
X20200000Y-10140000D02*
X7560000Y-10140000D01*
D11*
X12369000Y-6597000D02*
X12429000Y-6657000D01*
X12429000Y-6597000D02*
X12369000Y-6657000D01*
X12369000Y-6851000D02*
X12429000Y-6911000D01*
X12429000Y-6851000D02*
X12369000Y-6911000D01*
X13131000Y-6089000D02*
X13191000Y-6149000D01*
X13191000Y-6089000D02*
X13131000Y-6149000D01*
X13131000Y-6343000D02*
X13191000Y-6403000D01*
X13191000Y-6343000D02*
X13131000Y-6403000D01*
X9675000Y-6520000D02*
G75*
G03X9675000Y-6520000I-35000J0D01*
G01*
X17754000Y-5639000D02*
G75*
G03X17754000Y-5639000I-35000J0D01*
G01*
X18516000Y-6401000D02*
G75*
G03X18516000Y-6401000I-35000J0D01*
G01*
X17754000Y-6979000D02*
G75*
G03X17754000Y-6979000I-35000J0D01*
G01*
X18516000Y-7741000D02*
G75*
G03X18516000Y-7741000I-35000J0D01*
G01*
X15720000Y-4420000D02*
X15720000Y-4500000D01*
X15680000Y-4460000D02*
X15760000Y-4460000D01*
X16684500Y-5234400D02*
X16684500Y-5314400D01*
X16644500Y-5274400D02*
X16724500Y-5274400D01*
X19090000Y-8070000D02*
X19090000Y-8150000D01*
X19050000Y-8110000D02*
X19130000Y-8110000D01*
X19090000Y-8324000D02*
X19090000Y-8404000D01*
X19050000Y-8364000D02*
X19130000Y-8364000D01*
X8668000Y-7818000D02*
X8668000Y-7898000D01*
X8628000Y-7858000D02*
X8708000Y-7858000D01*
X8668000Y-8072000D02*
X8668000Y-8152000D01*
X8628000Y-8112000D02*
X8708000Y-8112000D01*
X14571820Y-7531820D02*
X14571820Y-7468180D01*
X14508180Y-7468180D01*
X14508180Y-7531820D01*
X14571820Y-7531820D01*
X14571820Y-8547820D02*
X14571820Y-8484180D01*
X14508180Y-8484180D01*
X14508180Y-8547820D01*
X14571820Y-8547820D01*
X8340000Y-3850000D02*
X8390000Y-3800000D01*
X8340000Y-3750000D01*
X8290000Y-3800000D01*
X8340000Y-3850000D01*
X8300000Y-3700000D02*
X8300000Y-3900000D01*
X8380000Y-3700000D02*
X8380000Y-3900000D01*
X8300000Y-3900000D02*
G75*
G03X8380000Y-3900000I40000J0D01*
G01*
X8380000Y-3700000D02*
G75*
G03X8300000Y-3700000I-40000J0D01*
G01*
X8640000Y-3380000D02*
X8690000Y-3330000D01*
X8640000Y-3280000D01*
X8590000Y-3330000D01*
X8640000Y-3380000D01*
X8540000Y-3370000D02*
X8740000Y-3370000D01*
X8540000Y-3290000D02*
X8740000Y-3290000D01*
X8740000Y-3370000D02*
G75*
G03X8740000Y-3290000I0J40000D01*
G01*
X8540000Y-3290000D02*
G75*
G03X8540000Y-3370000I0J-40000D01*
G01*
X8940000Y-3850000D02*
X8990000Y-3800000D01*
X8940000Y-3750000D01*
X8890000Y-3800000D01*
X8940000Y-3850000D01*
X8900000Y-3700000D02*
X8900000Y-3900000D01*
X8980000Y-3700000D02*
X8980000Y-3900000D01*
X8900000Y-3900000D02*
G75*
G03X8980000Y-3900000I40000J0D01*
G01*
X8980000Y-3700000D02*
G75*
G03X8900000Y-3700000I-40000J0D01*
G01*
X16245000Y-7465000D02*
X16355000Y-7575000D01*
X16355000Y-7465000D02*
X16245000Y-7575000D01*
X16355000Y-7520000D02*
G75*
G03X16355000Y-7520000I-55000J0D01*
G01*
X16245000Y-7719000D02*
X16355000Y-7829000D01*
X16355000Y-7719000D02*
X16245000Y-7829000D01*
X16355000Y-7774000D02*
G75*
G03X16355000Y-7774000I-55000J0D01*
G01*
X16245000Y-7973000D02*
X16355000Y-8083000D01*
X16355000Y-7973000D02*
X16245000Y-8083000D01*
X16355000Y-8028000D02*
G75*
G03X16355000Y-8028000I-55000J0D01*
G01*
X8845000Y-5527000D02*
X8955000Y-5637000D01*
X8955000Y-5527000D02*
X8845000Y-5637000D01*
X8955000Y-5582000D02*
G75*
G03X8955000Y-5582000I-55000J0D01*
G01*
X8845000Y-5756000D02*
X8955000Y-5866000D01*
X8955000Y-5756000D02*
X8845000Y-5866000D01*
X8955000Y-5811000D02*
G75*
G03X8955000Y-5811000I-55000J0D01*
G01*
X8845000Y-5985000D02*
X8955000Y-6095000D01*
X8955000Y-5985000D02*
X8845000Y-6095000D01*
X8955000Y-6040000D02*
G75*
G03X8955000Y-6040000I-55000J0D01*
G01*
X7855000Y-4905000D02*
X7985000Y-5035000D01*
X7985000Y-4905000D02*
X7855000Y-5035000D01*
X7920000Y-4905000D02*
X7920000Y-5035000D01*
X7855000Y-4970000D02*
X7985000Y-4970000D01*
X8355000Y-4395000D02*
X8485000Y-4525000D01*
X8485000Y-4395000D02*
X8355000Y-4525000D01*
X8420000Y-4395000D02*
X8420000Y-4525000D01*
X8355000Y-4460000D02*
X8485000Y-4460000D01*
X8355000Y-4655000D02*
X8485000Y-4785000D01*
X8485000Y-4655000D02*
X8355000Y-4785000D01*
X8420000Y-4655000D02*
X8420000Y-4785000D01*
X8355000Y-4720000D02*
X8485000Y-4720000D01*
X8355000Y-5155000D02*
X8485000Y-5285000D01*
X8485000Y-5155000D02*
X8355000Y-5285000D01*
X8420000Y-5155000D02*
X8420000Y-5285000D01*
X8355000Y-5220000D02*
X8485000Y-5220000D01*
X8355000Y-5415000D02*
X8485000Y-5545000D01*
X8485000Y-5415000D02*
X8355000Y-5545000D01*
X8420000Y-5415000D02*
X8420000Y-5545000D01*
X8355000Y-5480000D02*
X8485000Y-5480000D01*
X13855600Y-6635300D02*
X13985600Y-6765300D01*
X13985600Y-6635300D02*
X13855600Y-6765300D01*
X13920600Y-6635300D02*
X13920600Y-6765300D01*
X13855600Y-6700300D02*
X13985600Y-6700300D01*
X14105600Y-6925300D02*
X14235600Y-7055300D01*
X14235600Y-6925300D02*
X14105600Y-7055300D01*
X14170600Y-6925300D02*
X14170600Y-7055300D01*
X14105600Y-6990300D02*
X14235600Y-6990300D01*
X14355600Y-6635300D02*
X14485600Y-6765300D01*
X14485600Y-6635300D02*
X14355600Y-6765300D01*
X14420600Y-6635300D02*
X14420600Y-6765300D01*
X14355600Y-6700300D02*
X14485600Y-6700300D01*
X13865000Y-9325000D02*
X13995000Y-9455000D01*
X13995000Y-9325000D02*
X13865000Y-9455000D01*
X13930000Y-9325000D02*
X13930000Y-9455000D01*
X13865000Y-9390000D02*
X13995000Y-9390000D01*
X14115000Y-9035000D02*
X14245000Y-9165000D01*
X14245000Y-9035000D02*
X14115000Y-9165000D01*
X14180000Y-9035000D02*
X14180000Y-9165000D01*
X14115000Y-9100000D02*
X14245000Y-9100000D01*
X14365000Y-9325000D02*
X14495000Y-9455000D01*
X14495000Y-9325000D02*
X14365000Y-9455000D01*
X14430000Y-9325000D02*
X14430000Y-9455000D01*
X14365000Y-9390000D02*
X14495000Y-9390000D01*
X19488000Y-7492000D02*
X19708000Y-7712000D01*
X19708000Y-7492000D02*
X19488000Y-7712000D01*
X19675783Y-7679782D02*
X19675783Y-7524217D01*
X19520218Y-7524217D01*
X19520218Y-7679782D01*
X19675783Y-7679782D01*
X19488000Y-8508000D02*
X19708000Y-8728000D01*
X19708000Y-8508000D02*
X19488000Y-8728000D01*
X19675783Y-8695783D02*
X19675783Y-8540218D01*
X19520218Y-8540218D01*
X19520218Y-8695783D01*
X19675783Y-8695783D01*
X8050000Y-7494000D02*
X8270000Y-7714000D01*
X8270000Y-7494000D02*
X8050000Y-7714000D01*
X8237782Y-7681782D02*
X8237782Y-7526217D01*
X8082217Y-7526217D01*
X8082217Y-7681782D01*
X8237782Y-7681782D01*
X8050000Y-8510000D02*
X8270000Y-8730000D01*
X8270000Y-8510000D02*
X8050000Y-8730000D01*
X8237782Y-8697783D02*
X8237782Y-8542218D01*
X8082217Y-8542218D01*
X8082217Y-8697783D01*
X8237782Y-8697783D01*
X15825000Y-6345000D02*
X16095000Y-6615000D01*
X16095000Y-6345000D02*
X15825000Y-6615000D01*
X15960000Y-6615000D02*
X16095000Y-6480000D01*
X15960000Y-6345000D01*
X15825000Y-6480000D01*
X15960000Y-6615000D01*
X15825000Y-8945000D02*
X16095000Y-9215000D01*
X16095000Y-8945000D02*
X15825000Y-9215000D01*
X15960000Y-9215000D02*
X16095000Y-9080000D01*
X15960000Y-8945000D01*
X15825000Y-9080000D01*
X15960000Y-9215000D01*
D12*
X7841428Y-10610714D02*
X7841428Y-10310714D01*
X7912857Y-10310714D01*
X7955714Y-10325000D01*
X7984286Y-10353572D01*
X7998571Y-10382143D01*
X8012857Y-10439286D01*
X8012857Y-10482143D01*
X7998571Y-10539286D01*
X7984286Y-10567857D01*
X7955714Y-10596429D01*
X7912857Y-10610714D01*
X7841428Y-10610714D01*
X8141428Y-10610714D02*
X8141428Y-10410714D01*
X8141428Y-10467857D02*
X8155714Y-10439286D01*
X8170000Y-10425000D01*
X8198571Y-10410714D01*
X8227143Y-10410714D01*
X8327143Y-10610714D02*
X8327143Y-10410714D01*
X8327143Y-10310714D02*
X8312857Y-10325000D01*
X8327143Y-10339286D01*
X8341428Y-10325000D01*
X8327143Y-10310714D01*
X8327143Y-10339286D01*
X8512857Y-10610714D02*
X8484286Y-10596429D01*
X8470000Y-10567857D01*
X8470000Y-10310714D01*
X8670000Y-10610714D02*
X8641428Y-10596429D01*
X8627143Y-10567857D01*
X8627143Y-10310714D01*
X9012857Y-10610714D02*
X9012857Y-10310714D01*
X9112857Y-10525000D01*
X9212857Y-10310714D01*
X9212857Y-10610714D01*
X9484286Y-10610714D02*
X9484286Y-10453572D01*
X9470000Y-10425000D01*
X9441428Y-10410714D01*
X9384286Y-10410714D01*
X9355714Y-10425000D01*
X9484286Y-10596429D02*
X9455714Y-10610714D01*
X9384286Y-10610714D01*
X9355714Y-10596429D01*
X9341428Y-10567857D01*
X9341428Y-10539286D01*
X9355714Y-10510714D01*
X9384286Y-10496429D01*
X9455714Y-10496429D01*
X9484286Y-10482143D01*
X9627143Y-10410714D02*
X9627143Y-10710714D01*
X9627143Y-10425000D02*
X9655714Y-10410714D01*
X9712857Y-10410714D01*
X9741428Y-10425000D01*
X9755714Y-10439286D01*
X9770000Y-10467857D01*
X9770000Y-10553572D01*
X9755714Y-10582143D01*
X9741428Y-10596429D01*
X9712857Y-10610714D01*
X9655714Y-10610714D01*
X9627143Y-10596429D01*
X9898571Y-10582143D02*
X9912857Y-10596429D01*
X9898571Y-10610714D01*
X9884286Y-10596429D01*
X9898571Y-10582143D01*
X9898571Y-10610714D01*
X9898571Y-10425000D02*
X9912857Y-10439286D01*
X9898571Y-10453572D01*
X9884286Y-10439286D01*
X9898571Y-10425000D01*
X9898571Y-10453572D01*
X7495000Y-11075000D02*
X7555000Y-11135000D01*
X7555000Y-11075000D02*
X7495000Y-11135000D01*
X7898571Y-10940714D02*
X7927143Y-10940714D01*
X7955714Y-10955000D01*
X7970000Y-10969286D01*
X7984286Y-10997857D01*
X7998571Y-11055000D01*
X7998571Y-11126429D01*
X7984286Y-11183572D01*
X7970000Y-11212143D01*
X7955714Y-11226429D01*
X7927143Y-11240714D01*
X7898571Y-11240714D01*
X7870000Y-11226429D01*
X7855714Y-11212143D01*
X7841428Y-11183572D01*
X7827143Y-11126429D01*
X7827143Y-11055000D01*
X7841428Y-10997857D01*
X7855714Y-10969286D01*
X7870000Y-10955000D01*
X7898571Y-10940714D01*
X8127143Y-11212143D02*
X8141428Y-11226429D01*
X8127143Y-11240714D01*
X8112857Y-11226429D01*
X8127143Y-11212143D01*
X8127143Y-11240714D01*
X8398571Y-10940714D02*
X8341428Y-10940714D01*
X8312857Y-10955000D01*
X8298571Y-10969286D01*
X8270000Y-11012143D01*
X8255714Y-11069286D01*
X8255714Y-11183572D01*
X8270000Y-11212143D01*
X8284286Y-11226429D01*
X8312857Y-11240714D01*
X8370000Y-11240714D01*
X8398571Y-11226429D01*
X8412857Y-11212143D01*
X8427143Y-11183572D01*
X8427143Y-11112143D01*
X8412857Y-11083572D01*
X8398571Y-11069286D01*
X8370000Y-11055000D01*
X8312857Y-11055000D01*
X8284286Y-11069286D01*
X8270000Y-11083572D01*
X8255714Y-11112143D01*
X8612857Y-10940714D02*
X8641428Y-10940714D01*
X8670000Y-10955000D01*
X8684286Y-10969286D01*
X8698571Y-10997857D01*
X8712857Y-11055000D01*
X8712857Y-11126429D01*
X8698571Y-11183572D01*
X8684286Y-11212143D01*
X8670000Y-11226429D01*
X8641428Y-11240714D01*
X8612857Y-11240714D01*
X8584286Y-11226429D01*
X8570000Y-11212143D01*
X8555714Y-11183572D01*
X8541428Y-11126429D01*
X8541428Y-11055000D01*
X8555714Y-10997857D01*
X8570000Y-10969286D01*
X8584286Y-10955000D01*
X8612857Y-10940714D01*
X8841428Y-11240714D02*
X8841428Y-11040714D01*
X8841428Y-11069286D02*
X8855714Y-11055000D01*
X8884286Y-11040714D01*
X8927143Y-11040714D01*
X8955714Y-11055000D01*
X8970000Y-11083572D01*
X8970000Y-11240714D01*
X8970000Y-11083572D02*
X8984286Y-11055000D01*
X9012857Y-11040714D01*
X9055714Y-11040714D01*
X9084286Y-11055000D01*
X9098571Y-11083572D01*
X9098571Y-11240714D01*
X9241428Y-11240714D02*
X9241428Y-11040714D01*
X9241428Y-11069286D02*
X9255714Y-11055000D01*
X9284286Y-11040714D01*
X9327143Y-11040714D01*
X9355714Y-11055000D01*
X9370000Y-11083572D01*
X9370000Y-11240714D01*
X9370000Y-11083572D02*
X9384286Y-11055000D01*
X9412857Y-11040714D01*
X9455714Y-11040714D01*
X9484286Y-11055000D01*
X9498571Y-11083572D01*
X9498571Y-11240714D01*
X10084286Y-10926429D02*
X9827143Y-11312143D01*
X10470000Y-10940714D02*
X10498571Y-10940714D01*
X10527143Y-10955000D01*
X10541428Y-10969286D01*
X10555714Y-10997857D01*
X10570000Y-11055000D01*
X10570000Y-11126429D01*
X10555714Y-11183572D01*
X10541428Y-11212143D01*
X10527143Y-11226429D01*
X10498571Y-11240714D01*
X10470000Y-11240714D01*
X10441428Y-11226429D01*
X10427143Y-11212143D01*
X10412857Y-11183572D01*
X10398571Y-11126429D01*
X10398571Y-11055000D01*
X10412857Y-10997857D01*
X10427143Y-10969286D01*
X10441428Y-10955000D01*
X10470000Y-10940714D01*
X10698571Y-11212143D02*
X10712857Y-11226429D01*
X10698571Y-11240714D01*
X10684286Y-11226429D01*
X10698571Y-11212143D01*
X10698571Y-11240714D01*
X10898571Y-10940714D02*
X10927143Y-10940714D01*
X10955714Y-10955000D01*
X10970000Y-10969286D01*
X10984286Y-10997857D01*
X10998571Y-11055000D01*
X10998571Y-11126429D01*
X10984286Y-11183572D01*
X10970000Y-11212143D01*
X10955714Y-11226429D01*
X10927143Y-11240714D01*
X10898571Y-11240714D01*
X10870000Y-11226429D01*
X10855714Y-11212143D01*
X10841428Y-11183572D01*
X10827143Y-11126429D01*
X10827143Y-11055000D01*
X10841428Y-10997857D01*
X10855714Y-10969286D01*
X10870000Y-10955000D01*
X10898571Y-10940714D01*
X11112857Y-10969286D02*
X11127143Y-10955000D01*
X11155714Y-10940714D01*
X11227143Y-10940714D01*
X11255714Y-10955000D01*
X11270000Y-10969286D01*
X11284286Y-10997857D01*
X11284286Y-11026429D01*
X11270000Y-11069286D01*
X11098571Y-11240714D01*
X11284286Y-11240714D01*
X11541428Y-11040714D02*
X11541428Y-11240714D01*
X11470000Y-10926429D02*
X11398571Y-11140714D01*
X11584286Y-11140714D01*
X11684286Y-10940714D02*
X11684286Y-10997857D01*
X11798571Y-10940714D02*
X11798571Y-10997857D01*
X12241428Y-11355000D02*
X12227143Y-11340714D01*
X12198571Y-11297857D01*
X12184286Y-11269286D01*
X12170000Y-11226429D01*
X12155714Y-11155000D01*
X12155714Y-11097857D01*
X12170000Y-11026429D01*
X12184286Y-10983572D01*
X12198571Y-10955000D01*
X12227143Y-10912143D01*
X12241428Y-10897857D01*
X12484286Y-11040714D02*
X12484286Y-11240714D01*
X12412857Y-10926429D02*
X12341428Y-11140714D01*
X12527143Y-11140714D01*
X12870000Y-11240714D02*
X12870000Y-10940714D01*
X12998571Y-11240714D02*
X12998571Y-11083572D01*
X12984286Y-11055000D01*
X12955714Y-11040714D01*
X12912857Y-11040714D01*
X12884286Y-11055000D01*
X12870000Y-11069286D01*
X13184286Y-11240714D02*
X13155714Y-11226429D01*
X13141428Y-11212143D01*
X13127143Y-11183572D01*
X13127143Y-11097857D01*
X13141428Y-11069286D01*
X13155714Y-11055000D01*
X13184286Y-11040714D01*
X13227143Y-11040714D01*
X13255714Y-11055000D01*
X13270000Y-11069286D01*
X13284286Y-11097857D01*
X13284286Y-11183572D01*
X13270000Y-11212143D01*
X13255714Y-11226429D01*
X13227143Y-11240714D01*
X13184286Y-11240714D01*
X13455714Y-11240714D02*
X13427143Y-11226429D01*
X13412857Y-11197857D01*
X13412857Y-10940714D01*
X13684286Y-11226429D02*
X13655714Y-11240714D01*
X13598571Y-11240714D01*
X13570000Y-11226429D01*
X13555714Y-11197857D01*
X13555714Y-11083572D01*
X13570000Y-11055000D01*
X13598571Y-11040714D01*
X13655714Y-11040714D01*
X13684286Y-11055000D01*
X13698571Y-11083572D01*
X13698571Y-11112143D01*
X13555714Y-11140714D01*
X13812857Y-11226429D02*
X13841428Y-11240714D01*
X13898571Y-11240714D01*
X13927143Y-11226429D01*
X13941428Y-11197857D01*
X13941428Y-11183572D01*
X13927143Y-11155000D01*
X13898571Y-11140714D01*
X13855714Y-11140714D01*
X13827143Y-11126429D01*
X13812857Y-11097857D01*
X13812857Y-11083572D01*
X13827143Y-11055000D01*
X13855714Y-11040714D01*
X13898571Y-11040714D01*
X13927143Y-11055000D01*
X14041428Y-11355000D02*
X14055714Y-11340714D01*
X14084286Y-11297857D01*
X14098571Y-11269286D01*
X14112857Y-11226429D01*
X14127143Y-11155000D01*
X14127143Y-11097857D01*
X14112857Y-11026429D01*
X14098571Y-10983572D01*
X14084286Y-10955000D01*
X14055714Y-10912143D01*
X14041428Y-10897857D01*
X7555000Y-11501000D02*
G75*
G03X7555000Y-11501000I-35000J0D01*
G01*
X7898571Y-11336714D02*
X7927143Y-11336714D01*
X7955714Y-11351000D01*
X7970000Y-11365286D01*
X7984286Y-11393857D01*
X7998571Y-11451000D01*
X7998571Y-11522429D01*
X7984286Y-11579571D01*
X7970000Y-11608143D01*
X7955714Y-11622429D01*
X7927143Y-11636714D01*
X7898571Y-11636714D01*
X7870000Y-11622429D01*
X7855714Y-11608143D01*
X7841428Y-11579571D01*
X7827143Y-11522429D01*
X7827143Y-11451000D01*
X7841428Y-11393857D01*
X7855714Y-11365286D01*
X7870000Y-11351000D01*
X7898571Y-11336714D01*
X8127143Y-11608143D02*
X8141428Y-11622429D01*
X8127143Y-11636714D01*
X8112857Y-11622429D01*
X8127143Y-11608143D01*
X8127143Y-11636714D01*
X8241428Y-11336714D02*
X8441428Y-11336714D01*
X8312857Y-11636714D01*
X8612857Y-11336714D02*
X8641428Y-11336714D01*
X8670000Y-11351000D01*
X8684286Y-11365286D01*
X8698571Y-11393857D01*
X8712857Y-11451000D01*
X8712857Y-11522429D01*
X8698571Y-11579571D01*
X8684286Y-11608143D01*
X8670000Y-11622429D01*
X8641428Y-11636714D01*
X8612857Y-11636714D01*
X8584286Y-11622429D01*
X8570000Y-11608143D01*
X8555714Y-11579571D01*
X8541428Y-11522429D01*
X8541428Y-11451000D01*
X8555714Y-11393857D01*
X8570000Y-11365286D01*
X8584286Y-11351000D01*
X8612857Y-11336714D01*
X8841428Y-11636714D02*
X8841428Y-11436714D01*
X8841428Y-11465286D02*
X8855714Y-11451000D01*
X8884286Y-11436714D01*
X8927143Y-11436714D01*
X8955714Y-11451000D01*
X8970000Y-11479571D01*
X8970000Y-11636714D01*
X8970000Y-11479571D02*
X8984286Y-11451000D01*
X9012857Y-11436714D01*
X9055714Y-11436714D01*
X9084286Y-11451000D01*
X9098571Y-11479571D01*
X9098571Y-11636714D01*
X9241428Y-11636714D02*
X9241428Y-11436714D01*
X9241428Y-11465286D02*
X9255714Y-11451000D01*
X9284286Y-11436714D01*
X9327143Y-11436714D01*
X9355714Y-11451000D01*
X9370000Y-11479571D01*
X9370000Y-11636714D01*
X9370000Y-11479571D02*
X9384286Y-11451000D01*
X9412857Y-11436714D01*
X9455714Y-11436714D01*
X9484286Y-11451000D01*
X9498571Y-11479571D01*
X9498571Y-11636714D01*
X10084286Y-11322429D02*
X9827143Y-11708143D01*
X10470000Y-11336714D02*
X10498571Y-11336714D01*
X10527143Y-11351000D01*
X10541428Y-11365286D01*
X10555714Y-11393857D01*
X10570000Y-11451000D01*
X10570000Y-11522429D01*
X10555714Y-11579571D01*
X10541428Y-11608143D01*
X10527143Y-11622429D01*
X10498571Y-11636714D01*
X10470000Y-11636714D01*
X10441428Y-11622429D01*
X10427143Y-11608143D01*
X10412857Y-11579571D01*
X10398571Y-11522429D01*
X10398571Y-11451000D01*
X10412857Y-11393857D01*
X10427143Y-11365286D01*
X10441428Y-11351000D01*
X10470000Y-11336714D01*
X10698571Y-11608143D02*
X10712857Y-11622429D01*
X10698571Y-11636714D01*
X10684286Y-11622429D01*
X10698571Y-11608143D01*
X10698571Y-11636714D01*
X10898571Y-11336714D02*
X10927143Y-11336714D01*
X10955714Y-11351000D01*
X10970000Y-11365286D01*
X10984286Y-11393857D01*
X10998571Y-11451000D01*
X10998571Y-11522429D01*
X10984286Y-11579571D01*
X10970000Y-11608143D01*
X10955714Y-11622429D01*
X10927143Y-11636714D01*
X10898571Y-11636714D01*
X10870000Y-11622429D01*
X10855714Y-11608143D01*
X10841428Y-11579571D01*
X10827143Y-11522429D01*
X10827143Y-11451000D01*
X10841428Y-11393857D01*
X10855714Y-11365286D01*
X10870000Y-11351000D01*
X10898571Y-11336714D01*
X11112857Y-11365286D02*
X11127143Y-11351000D01*
X11155714Y-11336714D01*
X11227143Y-11336714D01*
X11255714Y-11351000D01*
X11270000Y-11365286D01*
X11284286Y-11393857D01*
X11284286Y-11422429D01*
X11270000Y-11465286D01*
X11098571Y-11636714D01*
X11284286Y-11636714D01*
X11455714Y-11465286D02*
X11427143Y-11451000D01*
X11412857Y-11436714D01*
X11398571Y-11408143D01*
X11398571Y-11393857D01*
X11412857Y-11365286D01*
X11427143Y-11351000D01*
X11455714Y-11336714D01*
X11512857Y-11336714D01*
X11541428Y-11351000D01*
X11555714Y-11365286D01*
X11570000Y-11393857D01*
X11570000Y-11408143D01*
X11555714Y-11436714D01*
X11541428Y-11451000D01*
X11512857Y-11465286D01*
X11455714Y-11465286D01*
X11427143Y-11479571D01*
X11412857Y-11493857D01*
X11398571Y-11522429D01*
X11398571Y-11579571D01*
X11412857Y-11608143D01*
X11427143Y-11622429D01*
X11455714Y-11636714D01*
X11512857Y-11636714D01*
X11541428Y-11622429D01*
X11555714Y-11608143D01*
X11570000Y-11579571D01*
X11570000Y-11522429D01*
X11555714Y-11493857D01*
X11541428Y-11479571D01*
X11512857Y-11465286D01*
X11684286Y-11336714D02*
X11684286Y-11393857D01*
X11798571Y-11336714D02*
X11798571Y-11393857D01*
X12241428Y-11751000D02*
X12227143Y-11736714D01*
X12198571Y-11693857D01*
X12184286Y-11665286D01*
X12170000Y-11622429D01*
X12155714Y-11551000D01*
X12155714Y-11493857D01*
X12170000Y-11422429D01*
X12184286Y-11379571D01*
X12198571Y-11351000D01*
X12227143Y-11308143D01*
X12241428Y-11293857D01*
X12498571Y-11336714D02*
X12355714Y-11336714D01*
X12341428Y-11479571D01*
X12355714Y-11465286D01*
X12384286Y-11451000D01*
X12455714Y-11451000D01*
X12484286Y-11465286D01*
X12498571Y-11479571D01*
X12512857Y-11508143D01*
X12512857Y-11579571D01*
X12498571Y-11608143D01*
X12484286Y-11622429D01*
X12455714Y-11636714D01*
X12384286Y-11636714D01*
X12355714Y-11622429D01*
X12341428Y-11608143D01*
X12870000Y-11636714D02*
X12870000Y-11336714D01*
X12998571Y-11636714D02*
X12998571Y-11479571D01*
X12984286Y-11451000D01*
X12955714Y-11436714D01*
X12912857Y-11436714D01*
X12884286Y-11451000D01*
X12870000Y-11465286D01*
X13184286Y-11636714D02*
X13155714Y-11622429D01*
X13141428Y-11608143D01*
X13127143Y-11579571D01*
X13127143Y-11493857D01*
X13141428Y-11465286D01*
X13155714Y-11451000D01*
X13184286Y-11436714D01*
X13227143Y-11436714D01*
X13255714Y-11451000D01*
X13270000Y-11465286D01*
X13284286Y-11493857D01*
X13284286Y-11579571D01*
X13270000Y-11608143D01*
X13255714Y-11622429D01*
X13227143Y-11636714D01*
X13184286Y-11636714D01*
X13455714Y-11636714D02*
X13427143Y-11622429D01*
X13412857Y-11593857D01*
X13412857Y-11336714D01*
X13684286Y-11622429D02*
X13655714Y-11636714D01*
X13598571Y-11636714D01*
X13570000Y-11622429D01*
X13555714Y-11593857D01*
X13555714Y-11479571D01*
X13570000Y-11451000D01*
X13598571Y-11436714D01*
X13655714Y-11436714D01*
X13684286Y-11451000D01*
X13698571Y-11479571D01*
X13698571Y-11508143D01*
X13555714Y-11536714D01*
X13812857Y-11622429D02*
X13841428Y-11636714D01*
X13898571Y-11636714D01*
X13927143Y-11622429D01*
X13941428Y-11593857D01*
X13941428Y-11579571D01*
X13927143Y-11551000D01*
X13898571Y-11536714D01*
X13855714Y-11536714D01*
X13827143Y-11522429D01*
X13812857Y-11493857D01*
X13812857Y-11479571D01*
X13827143Y-11451000D01*
X13855714Y-11436714D01*
X13898571Y-11436714D01*
X13927143Y-11451000D01*
X14041428Y-11751000D02*
X14055714Y-11736714D01*
X14084286Y-11693857D01*
X14098571Y-11665286D01*
X14112857Y-11622429D01*
X14127143Y-11551000D01*
X14127143Y-11493857D01*
X14112857Y-11422429D01*
X14098571Y-11379571D01*
X14084286Y-11351000D01*
X14055714Y-11308143D01*
X14041428Y-11293857D01*
X7515000Y-11857000D02*
X7515000Y-11937000D01*
X7475000Y-11897000D02*
X7555000Y-11897000D01*
X7898571Y-11732714D02*
X7927143Y-11732714D01*
X7955714Y-11747000D01*
X7970000Y-11761286D01*
X7984286Y-11789857D01*
X7998571Y-11847000D01*
X7998571Y-11918429D01*
X7984286Y-11975571D01*
X7970000Y-12004143D01*
X7955714Y-12018429D01*
X7927143Y-12032714D01*
X7898571Y-12032714D01*
X7870000Y-12018429D01*
X7855714Y-12004143D01*
X7841428Y-11975571D01*
X7827143Y-11918429D01*
X7827143Y-11847000D01*
X7841428Y-11789857D01*
X7855714Y-11761286D01*
X7870000Y-11747000D01*
X7898571Y-11732714D01*
X8127143Y-12004143D02*
X8141428Y-12018429D01*
X8127143Y-12032714D01*
X8112857Y-12018429D01*
X8127143Y-12004143D01*
X8127143Y-12032714D01*
X8312857Y-11861286D02*
X8284286Y-11847000D01*
X8270000Y-11832714D01*
X8255714Y-11804143D01*
X8255714Y-11789857D01*
X8270000Y-11761286D01*
X8284286Y-11747000D01*
X8312857Y-11732714D01*
X8370000Y-11732714D01*
X8398571Y-11747000D01*
X8412857Y-11761286D01*
X8427143Y-11789857D01*
X8427143Y-11804143D01*
X8412857Y-11832714D01*
X8398571Y-11847000D01*
X8370000Y-11861286D01*
X8312857Y-11861286D01*
X8284286Y-11875571D01*
X8270000Y-11889857D01*
X8255714Y-11918429D01*
X8255714Y-11975571D01*
X8270000Y-12004143D01*
X8284286Y-12018429D01*
X8312857Y-12032714D01*
X8370000Y-12032714D01*
X8398571Y-12018429D01*
X8412857Y-12004143D01*
X8427143Y-11975571D01*
X8427143Y-11918429D01*
X8412857Y-11889857D01*
X8398571Y-11875571D01*
X8370000Y-11861286D01*
X8612857Y-11732714D02*
X8641428Y-11732714D01*
X8670000Y-11747000D01*
X8684286Y-11761286D01*
X8698571Y-11789857D01*
X8712857Y-11847000D01*
X8712857Y-11918429D01*
X8698571Y-11975571D01*
X8684286Y-12004143D01*
X8670000Y-12018429D01*
X8641428Y-12032714D01*
X8612857Y-12032714D01*
X8584286Y-12018429D01*
X8570000Y-12004143D01*
X8555714Y-11975571D01*
X8541428Y-11918429D01*
X8541428Y-11847000D01*
X8555714Y-11789857D01*
X8570000Y-11761286D01*
X8584286Y-11747000D01*
X8612857Y-11732714D01*
X8841428Y-12032714D02*
X8841428Y-11832714D01*
X8841428Y-11861286D02*
X8855714Y-11847000D01*
X8884286Y-11832714D01*
X8927143Y-11832714D01*
X8955714Y-11847000D01*
X8970000Y-11875571D01*
X8970000Y-12032714D01*
X8970000Y-11875571D02*
X8984286Y-11847000D01*
X9012857Y-11832714D01*
X9055714Y-11832714D01*
X9084286Y-11847000D01*
X9098571Y-11875571D01*
X9098571Y-12032714D01*
X9241428Y-12032714D02*
X9241428Y-11832714D01*
X9241428Y-11861286D02*
X9255714Y-11847000D01*
X9284286Y-11832714D01*
X9327143Y-11832714D01*
X9355714Y-11847000D01*
X9370000Y-11875571D01*
X9370000Y-12032714D01*
X9370000Y-11875571D02*
X9384286Y-11847000D01*
X9412857Y-11832714D01*
X9455714Y-11832714D01*
X9484286Y-11847000D01*
X9498571Y-11875571D01*
X9498571Y-12032714D01*
X10084286Y-11718429D02*
X9827143Y-12104143D01*
X10470000Y-11732714D02*
X10498571Y-11732714D01*
X10527143Y-11747000D01*
X10541428Y-11761286D01*
X10555714Y-11789857D01*
X10570000Y-11847000D01*
X10570000Y-11918429D01*
X10555714Y-11975571D01*
X10541428Y-12004143D01*
X10527143Y-12018429D01*
X10498571Y-12032714D01*
X10470000Y-12032714D01*
X10441428Y-12018429D01*
X10427143Y-12004143D01*
X10412857Y-11975571D01*
X10398571Y-11918429D01*
X10398571Y-11847000D01*
X10412857Y-11789857D01*
X10427143Y-11761286D01*
X10441428Y-11747000D01*
X10470000Y-11732714D01*
X10698571Y-12004143D02*
X10712857Y-12018429D01*
X10698571Y-12032714D01*
X10684286Y-12018429D01*
X10698571Y-12004143D01*
X10698571Y-12032714D01*
X10898571Y-11732714D02*
X10927143Y-11732714D01*
X10955714Y-11747000D01*
X10970000Y-11761286D01*
X10984286Y-11789857D01*
X10998571Y-11847000D01*
X10998571Y-11918429D01*
X10984286Y-11975571D01*
X10970000Y-12004143D01*
X10955714Y-12018429D01*
X10927143Y-12032714D01*
X10898571Y-12032714D01*
X10870000Y-12018429D01*
X10855714Y-12004143D01*
X10841428Y-11975571D01*
X10827143Y-11918429D01*
X10827143Y-11847000D01*
X10841428Y-11789857D01*
X10855714Y-11761286D01*
X10870000Y-11747000D01*
X10898571Y-11732714D01*
X11098571Y-11732714D02*
X11284286Y-11732714D01*
X11184286Y-11847000D01*
X11227143Y-11847000D01*
X11255714Y-11861286D01*
X11270000Y-11875571D01*
X11284286Y-11904143D01*
X11284286Y-11975571D01*
X11270000Y-12004143D01*
X11255714Y-12018429D01*
X11227143Y-12032714D01*
X11141428Y-12032714D01*
X11112857Y-12018429D01*
X11098571Y-12004143D01*
X11570000Y-12032714D02*
X11398571Y-12032714D01*
X11484286Y-12032714D02*
X11484286Y-11732714D01*
X11455714Y-11775571D01*
X11427143Y-11804143D01*
X11398571Y-11818429D01*
X11684286Y-11732714D02*
X11684286Y-11789857D01*
X11798571Y-11732714D02*
X11798571Y-11789857D01*
X12241428Y-12147000D02*
X12227143Y-12132714D01*
X12198571Y-12089857D01*
X12184286Y-12061286D01*
X12170000Y-12018429D01*
X12155714Y-11947000D01*
X12155714Y-11889857D01*
X12170000Y-11818429D01*
X12184286Y-11775571D01*
X12198571Y-11747000D01*
X12227143Y-11704143D01*
X12241428Y-11689857D01*
X12484286Y-11732714D02*
X12427143Y-11732714D01*
X12398571Y-11747000D01*
X12384286Y-11761286D01*
X12355714Y-11804143D01*
X12341428Y-11861286D01*
X12341428Y-11975571D01*
X12355714Y-12004143D01*
X12370000Y-12018429D01*
X12398571Y-12032714D01*
X12455714Y-12032714D01*
X12484286Y-12018429D01*
X12498571Y-12004143D01*
X12512857Y-11975571D01*
X12512857Y-11904143D01*
X12498571Y-11875571D01*
X12484286Y-11861286D01*
X12455714Y-11847000D01*
X12398571Y-11847000D01*
X12370000Y-11861286D01*
X12355714Y-11875571D01*
X12341428Y-11904143D01*
X12870000Y-12032714D02*
X12870000Y-11732714D01*
X12998571Y-12032714D02*
X12998571Y-11875571D01*
X12984286Y-11847000D01*
X12955714Y-11832714D01*
X12912857Y-11832714D01*
X12884286Y-11847000D01*
X12870000Y-11861286D01*
X13184286Y-12032714D02*
X13155714Y-12018429D01*
X13141428Y-12004143D01*
X13127143Y-11975571D01*
X13127143Y-11889857D01*
X13141428Y-11861286D01*
X13155714Y-11847000D01*
X13184286Y-11832714D01*
X13227143Y-11832714D01*
X13255714Y-11847000D01*
X13270000Y-11861286D01*
X13284286Y-11889857D01*
X13284286Y-11975571D01*
X13270000Y-12004143D01*
X13255714Y-12018429D01*
X13227143Y-12032714D01*
X13184286Y-12032714D01*
X13455714Y-12032714D02*
X13427143Y-12018429D01*
X13412857Y-11989857D01*
X13412857Y-11732714D01*
X13684286Y-12018429D02*
X13655714Y-12032714D01*
X13598571Y-12032714D01*
X13570000Y-12018429D01*
X13555714Y-11989857D01*
X13555714Y-11875571D01*
X13570000Y-11847000D01*
X13598571Y-11832714D01*
X13655714Y-11832714D01*
X13684286Y-11847000D01*
X13698571Y-11875571D01*
X13698571Y-11904143D01*
X13555714Y-11932714D01*
X13812857Y-12018429D02*
X13841428Y-12032714D01*
X13898571Y-12032714D01*
X13927143Y-12018429D01*
X13941428Y-11989857D01*
X13941428Y-11975571D01*
X13927143Y-11947000D01*
X13898571Y-11932714D01*
X13855714Y-11932714D01*
X13827143Y-11918429D01*
X13812857Y-11889857D01*
X13812857Y-11875571D01*
X13827143Y-11847000D01*
X13855714Y-11832714D01*
X13898571Y-11832714D01*
X13927143Y-11847000D01*
X14041428Y-12147000D02*
X14055714Y-12132714D01*
X14084286Y-12089857D01*
X14098571Y-12061286D01*
X14112857Y-12018429D01*
X14127143Y-11947000D01*
X14127143Y-11889857D01*
X14112857Y-11818429D01*
X14098571Y-11775571D01*
X14084286Y-11747000D01*
X14055714Y-11704143D01*
X14041428Y-11689857D01*
X7541820Y-12324820D02*
X7541820Y-12261180D01*
X7478180Y-12261180D01*
X7478180Y-12324820D01*
X7541820Y-12324820D01*
X7898571Y-12128714D02*
X7927143Y-12128714D01*
X7955714Y-12143000D01*
X7970000Y-12157286D01*
X7984286Y-12185857D01*
X7998571Y-12243000D01*
X7998571Y-12314429D01*
X7984286Y-12371571D01*
X7970000Y-12400143D01*
X7955714Y-12414429D01*
X7927143Y-12428714D01*
X7898571Y-12428714D01*
X7870000Y-12414429D01*
X7855714Y-12400143D01*
X7841428Y-12371571D01*
X7827143Y-12314429D01*
X7827143Y-12243000D01*
X7841428Y-12185857D01*
X7855714Y-12157286D01*
X7870000Y-12143000D01*
X7898571Y-12128714D01*
X8127143Y-12400143D02*
X8141428Y-12414429D01*
X8127143Y-12428714D01*
X8112857Y-12414429D01*
X8127143Y-12400143D01*
X8127143Y-12428714D01*
X8284286Y-12428714D02*
X8341428Y-12428714D01*
X8370000Y-12414429D01*
X8384286Y-12400143D01*
X8412857Y-12357286D01*
X8427143Y-12300143D01*
X8427143Y-12185857D01*
X8412857Y-12157286D01*
X8398571Y-12143000D01*
X8370000Y-12128714D01*
X8312857Y-12128714D01*
X8284286Y-12143000D01*
X8270000Y-12157286D01*
X8255714Y-12185857D01*
X8255714Y-12257286D01*
X8270000Y-12285857D01*
X8284286Y-12300143D01*
X8312857Y-12314429D01*
X8370000Y-12314429D01*
X8398571Y-12300143D01*
X8412857Y-12285857D01*
X8427143Y-12257286D01*
X8612857Y-12128714D02*
X8641428Y-12128714D01*
X8670000Y-12143000D01*
X8684286Y-12157286D01*
X8698571Y-12185857D01*
X8712857Y-12243000D01*
X8712857Y-12314429D01*
X8698571Y-12371571D01*
X8684286Y-12400143D01*
X8670000Y-12414429D01*
X8641428Y-12428714D01*
X8612857Y-12428714D01*
X8584286Y-12414429D01*
X8570000Y-12400143D01*
X8555714Y-12371571D01*
X8541428Y-12314429D01*
X8541428Y-12243000D01*
X8555714Y-12185857D01*
X8570000Y-12157286D01*
X8584286Y-12143000D01*
X8612857Y-12128714D01*
X8841428Y-12428714D02*
X8841428Y-12228714D01*
X8841428Y-12257286D02*
X8855714Y-12243000D01*
X8884286Y-12228714D01*
X8927143Y-12228714D01*
X8955714Y-12243000D01*
X8970000Y-12271571D01*
X8970000Y-12428714D01*
X8970000Y-12271571D02*
X8984286Y-12243000D01*
X9012857Y-12228714D01*
X9055714Y-12228714D01*
X9084286Y-12243000D01*
X9098571Y-12271571D01*
X9098571Y-12428714D01*
X9241428Y-12428714D02*
X9241428Y-12228714D01*
X9241428Y-12257286D02*
X9255714Y-12243000D01*
X9284286Y-12228714D01*
X9327143Y-12228714D01*
X9355714Y-12243000D01*
X9370000Y-12271571D01*
X9370000Y-12428714D01*
X9370000Y-12271571D02*
X9384286Y-12243000D01*
X9412857Y-12228714D01*
X9455714Y-12228714D01*
X9484286Y-12243000D01*
X9498571Y-12271571D01*
X9498571Y-12428714D01*
X10084286Y-12114429D02*
X9827143Y-12500143D01*
X10470000Y-12128714D02*
X10498571Y-12128714D01*
X10527143Y-12143000D01*
X10541428Y-12157286D01*
X10555714Y-12185857D01*
X10570000Y-12243000D01*
X10570000Y-12314429D01*
X10555714Y-12371571D01*
X10541428Y-12400143D01*
X10527143Y-12414429D01*
X10498571Y-12428714D01*
X10470000Y-12428714D01*
X10441428Y-12414429D01*
X10427143Y-12400143D01*
X10412857Y-12371571D01*
X10398571Y-12314429D01*
X10398571Y-12243000D01*
X10412857Y-12185857D01*
X10427143Y-12157286D01*
X10441428Y-12143000D01*
X10470000Y-12128714D01*
X10698571Y-12400143D02*
X10712857Y-12414429D01*
X10698571Y-12428714D01*
X10684286Y-12414429D01*
X10698571Y-12400143D01*
X10698571Y-12428714D01*
X10898571Y-12128714D02*
X10927143Y-12128714D01*
X10955714Y-12143000D01*
X10970000Y-12157286D01*
X10984286Y-12185857D01*
X10998571Y-12243000D01*
X10998571Y-12314429D01*
X10984286Y-12371571D01*
X10970000Y-12400143D01*
X10955714Y-12414429D01*
X10927143Y-12428714D01*
X10898571Y-12428714D01*
X10870000Y-12414429D01*
X10855714Y-12400143D01*
X10841428Y-12371571D01*
X10827143Y-12314429D01*
X10827143Y-12243000D01*
X10841428Y-12185857D01*
X10855714Y-12157286D01*
X10870000Y-12143000D01*
X10898571Y-12128714D01*
X11098571Y-12128714D02*
X11284286Y-12128714D01*
X11184286Y-12243000D01*
X11227143Y-12243000D01*
X11255714Y-12257286D01*
X11270000Y-12271571D01*
X11284286Y-12300143D01*
X11284286Y-12371571D01*
X11270000Y-12400143D01*
X11255714Y-12414429D01*
X11227143Y-12428714D01*
X11141428Y-12428714D01*
X11112857Y-12414429D01*
X11098571Y-12400143D01*
X11555714Y-12128714D02*
X11412857Y-12128714D01*
X11398571Y-12271571D01*
X11412857Y-12257286D01*
X11441428Y-12243000D01*
X11512857Y-12243000D01*
X11541428Y-12257286D01*
X11555714Y-12271571D01*
X11570000Y-12300143D01*
X11570000Y-12371571D01*
X11555714Y-12400143D01*
X11541428Y-12414429D01*
X11512857Y-12428714D01*
X11441428Y-12428714D01*
X11412857Y-12414429D01*
X11398571Y-12400143D01*
X11684286Y-12128714D02*
X11684286Y-12185857D01*
X11798571Y-12128714D02*
X11798571Y-12185857D01*
X12241428Y-12543000D02*
X12227143Y-12528714D01*
X12198571Y-12485857D01*
X12184286Y-12457286D01*
X12170000Y-12414429D01*
X12155714Y-12343000D01*
X12155714Y-12285857D01*
X12170000Y-12214429D01*
X12184286Y-12171571D01*
X12198571Y-12143000D01*
X12227143Y-12100143D01*
X12241428Y-12085857D01*
X12341428Y-12157286D02*
X12355714Y-12143000D01*
X12384286Y-12128714D01*
X12455714Y-12128714D01*
X12484286Y-12143000D01*
X12498571Y-12157286D01*
X12512857Y-12185857D01*
X12512857Y-12214429D01*
X12498571Y-12257286D01*
X12327143Y-12428714D01*
X12512857Y-12428714D01*
X12870000Y-12428714D02*
X12870000Y-12128714D01*
X12998571Y-12428714D02*
X12998571Y-12271571D01*
X12984286Y-12243000D01*
X12955714Y-12228714D01*
X12912857Y-12228714D01*
X12884286Y-12243000D01*
X12870000Y-12257286D01*
X13184286Y-12428714D02*
X13155714Y-12414429D01*
X13141428Y-12400143D01*
X13127143Y-12371571D01*
X13127143Y-12285857D01*
X13141428Y-12257286D01*
X13155714Y-12243000D01*
X13184286Y-12228714D01*
X13227143Y-12228714D01*
X13255714Y-12243000D01*
X13270000Y-12257286D01*
X13284286Y-12285857D01*
X13284286Y-12371571D01*
X13270000Y-12400143D01*
X13255714Y-12414429D01*
X13227143Y-12428714D01*
X13184286Y-12428714D01*
X13455714Y-12428714D02*
X13427143Y-12414429D01*
X13412857Y-12385857D01*
X13412857Y-12128714D01*
X13684286Y-12414429D02*
X13655714Y-12428714D01*
X13598571Y-12428714D01*
X13570000Y-12414429D01*
X13555714Y-12385857D01*
X13555714Y-12271571D01*
X13570000Y-12243000D01*
X13598571Y-12228714D01*
X13655714Y-12228714D01*
X13684286Y-12243000D01*
X13698571Y-12271571D01*
X13698571Y-12300143D01*
X13555714Y-12328714D01*
X13812857Y-12414429D02*
X13841428Y-12428714D01*
X13898571Y-12428714D01*
X13927143Y-12414429D01*
X13941428Y-12385857D01*
X13941428Y-12371571D01*
X13927143Y-12343000D01*
X13898571Y-12328714D01*
X13855714Y-12328714D01*
X13827143Y-12314429D01*
X13812857Y-12285857D01*
X13812857Y-12271571D01*
X13827143Y-12243000D01*
X13855714Y-12228714D01*
X13898571Y-12228714D01*
X13927143Y-12243000D01*
X14041428Y-12543000D02*
X14055714Y-12528714D01*
X14084286Y-12485857D01*
X14098571Y-12457286D01*
X14112857Y-12414429D01*
X14127143Y-12343000D01*
X14127143Y-12285857D01*
X14112857Y-12214429D01*
X14098571Y-12171571D01*
X14084286Y-12143000D01*
X14055714Y-12100143D01*
X14041428Y-12085857D01*
X7505000Y-12739000D02*
X7555000Y-12689000D01*
X7505000Y-12639000D01*
X7455000Y-12689000D01*
X7505000Y-12739000D01*
X7998571Y-12824714D02*
X7827143Y-12824714D01*
X7912857Y-12824714D02*
X7912857Y-12524714D01*
X7884286Y-12567571D01*
X7855714Y-12596143D01*
X7827143Y-12610429D01*
X8127143Y-12796143D02*
X8141428Y-12810429D01*
X8127143Y-12824714D01*
X8112857Y-12810429D01*
X8127143Y-12796143D01*
X8127143Y-12824714D01*
X8327143Y-12524714D02*
X8355714Y-12524714D01*
X8384286Y-12539000D01*
X8398571Y-12553286D01*
X8412857Y-12581857D01*
X8427143Y-12639000D01*
X8427143Y-12710429D01*
X8412857Y-12767571D01*
X8398571Y-12796143D01*
X8384286Y-12810429D01*
X8355714Y-12824714D01*
X8327143Y-12824714D01*
X8298571Y-12810429D01*
X8284286Y-12796143D01*
X8270000Y-12767571D01*
X8255714Y-12710429D01*
X8255714Y-12639000D01*
X8270000Y-12581857D01*
X8284286Y-12553286D01*
X8298571Y-12539000D01*
X8327143Y-12524714D01*
X8612857Y-12524714D02*
X8641428Y-12524714D01*
X8670000Y-12539000D01*
X8684286Y-12553286D01*
X8698571Y-12581857D01*
X8712857Y-12639000D01*
X8712857Y-12710429D01*
X8698571Y-12767571D01*
X8684286Y-12796143D01*
X8670000Y-12810429D01*
X8641428Y-12824714D01*
X8612857Y-12824714D01*
X8584286Y-12810429D01*
X8570000Y-12796143D01*
X8555714Y-12767571D01*
X8541428Y-12710429D01*
X8541428Y-12639000D01*
X8555714Y-12581857D01*
X8570000Y-12553286D01*
X8584286Y-12539000D01*
X8612857Y-12524714D01*
X8841428Y-12824714D02*
X8841428Y-12624714D01*
X8841428Y-12653286D02*
X8855714Y-12639000D01*
X8884286Y-12624714D01*
X8927143Y-12624714D01*
X8955714Y-12639000D01*
X8970000Y-12667571D01*
X8970000Y-12824714D01*
X8970000Y-12667571D02*
X8984286Y-12639000D01*
X9012857Y-12624714D01*
X9055714Y-12624714D01*
X9084286Y-12639000D01*
X9098571Y-12667571D01*
X9098571Y-12824714D01*
X9241428Y-12824714D02*
X9241428Y-12624714D01*
X9241428Y-12653286D02*
X9255714Y-12639000D01*
X9284286Y-12624714D01*
X9327143Y-12624714D01*
X9355714Y-12639000D01*
X9370000Y-12667571D01*
X9370000Y-12824714D01*
X9370000Y-12667571D02*
X9384286Y-12639000D01*
X9412857Y-12624714D01*
X9455714Y-12624714D01*
X9484286Y-12639000D01*
X9498571Y-12667571D01*
X9498571Y-12824714D01*
X10084286Y-12510429D02*
X9827143Y-12896143D01*
X10470000Y-12524714D02*
X10498571Y-12524714D01*
X10527143Y-12539000D01*
X10541428Y-12553286D01*
X10555714Y-12581857D01*
X10570000Y-12639000D01*
X10570000Y-12710429D01*
X10555714Y-12767571D01*
X10541428Y-12796143D01*
X10527143Y-12810429D01*
X10498571Y-12824714D01*
X10470000Y-12824714D01*
X10441428Y-12810429D01*
X10427143Y-12796143D01*
X10412857Y-12767571D01*
X10398571Y-12710429D01*
X10398571Y-12639000D01*
X10412857Y-12581857D01*
X10427143Y-12553286D01*
X10441428Y-12539000D01*
X10470000Y-12524714D01*
X10698571Y-12796143D02*
X10712857Y-12810429D01*
X10698571Y-12824714D01*
X10684286Y-12810429D01*
X10698571Y-12796143D01*
X10698571Y-12824714D01*
X10898571Y-12524714D02*
X10927143Y-12524714D01*
X10955714Y-12539000D01*
X10970000Y-12553286D01*
X10984286Y-12581857D01*
X10998571Y-12639000D01*
X10998571Y-12710429D01*
X10984286Y-12767571D01*
X10970000Y-12796143D01*
X10955714Y-12810429D01*
X10927143Y-12824714D01*
X10898571Y-12824714D01*
X10870000Y-12810429D01*
X10855714Y-12796143D01*
X10841428Y-12767571D01*
X10827143Y-12710429D01*
X10827143Y-12639000D01*
X10841428Y-12581857D01*
X10855714Y-12553286D01*
X10870000Y-12539000D01*
X10898571Y-12524714D01*
X11098571Y-12524714D02*
X11284286Y-12524714D01*
X11184286Y-12639000D01*
X11227143Y-12639000D01*
X11255714Y-12653286D01*
X11270000Y-12667571D01*
X11284286Y-12696143D01*
X11284286Y-12767571D01*
X11270000Y-12796143D01*
X11255714Y-12810429D01*
X11227143Y-12824714D01*
X11141428Y-12824714D01*
X11112857Y-12810429D01*
X11098571Y-12796143D01*
X11427143Y-12824714D02*
X11484286Y-12824714D01*
X11512857Y-12810429D01*
X11527143Y-12796143D01*
X11555714Y-12753286D01*
X11570000Y-12696143D01*
X11570000Y-12581857D01*
X11555714Y-12553286D01*
X11541428Y-12539000D01*
X11512857Y-12524714D01*
X11455714Y-12524714D01*
X11427143Y-12539000D01*
X11412857Y-12553286D01*
X11398571Y-12581857D01*
X11398571Y-12653286D01*
X11412857Y-12681857D01*
X11427143Y-12696143D01*
X11455714Y-12710429D01*
X11512857Y-12710429D01*
X11541428Y-12696143D01*
X11555714Y-12681857D01*
X11570000Y-12653286D01*
X11684286Y-12524714D02*
X11684286Y-12581857D01*
X11798571Y-12524714D02*
X11798571Y-12581857D01*
X12241428Y-12939000D02*
X12227143Y-12924714D01*
X12198571Y-12881857D01*
X12184286Y-12853286D01*
X12170000Y-12810429D01*
X12155714Y-12739000D01*
X12155714Y-12681857D01*
X12170000Y-12610429D01*
X12184286Y-12567571D01*
X12198571Y-12539000D01*
X12227143Y-12496143D01*
X12241428Y-12481857D01*
X12412857Y-12524714D02*
X12441428Y-12524714D01*
X12470000Y-12539000D01*
X12484286Y-12553286D01*
X12498571Y-12581857D01*
X12512857Y-12639000D01*
X12512857Y-12710429D01*
X12498571Y-12767571D01*
X12484286Y-12796143D01*
X12470000Y-12810429D01*
X12441428Y-12824714D01*
X12412857Y-12824714D01*
X12384286Y-12810429D01*
X12370000Y-12796143D01*
X12355714Y-12767571D01*
X12341428Y-12710429D01*
X12341428Y-12639000D01*
X12355714Y-12581857D01*
X12370000Y-12553286D01*
X12384286Y-12539000D01*
X12412857Y-12524714D01*
X12870000Y-12824714D02*
X12870000Y-12524714D01*
X12998571Y-12824714D02*
X12998571Y-12667571D01*
X12984286Y-12639000D01*
X12955714Y-12624714D01*
X12912857Y-12624714D01*
X12884286Y-12639000D01*
X12870000Y-12653286D01*
X13184286Y-12824714D02*
X13155714Y-12810429D01*
X13141428Y-12796143D01*
X13127143Y-12767571D01*
X13127143Y-12681857D01*
X13141428Y-12653286D01*
X13155714Y-12639000D01*
X13184286Y-12624714D01*
X13227143Y-12624714D01*
X13255714Y-12639000D01*
X13270000Y-12653286D01*
X13284286Y-12681857D01*
X13284286Y-12767571D01*
X13270000Y-12796143D01*
X13255714Y-12810429D01*
X13227143Y-12824714D01*
X13184286Y-12824714D01*
X13455714Y-12824714D02*
X13427143Y-12810429D01*
X13412857Y-12781857D01*
X13412857Y-12524714D01*
X13684286Y-12810429D02*
X13655714Y-12824714D01*
X13598571Y-12824714D01*
X13570000Y-12810429D01*
X13555714Y-12781857D01*
X13555714Y-12667571D01*
X13570000Y-12639000D01*
X13598571Y-12624714D01*
X13655714Y-12624714D01*
X13684286Y-12639000D01*
X13698571Y-12667571D01*
X13698571Y-12696143D01*
X13555714Y-12724714D01*
X13812857Y-12810429D02*
X13841428Y-12824714D01*
X13898571Y-12824714D01*
X13927143Y-12810429D01*
X13941428Y-12781857D01*
X13941428Y-12767571D01*
X13927143Y-12739000D01*
X13898571Y-12724714D01*
X13855714Y-12724714D01*
X13827143Y-12710429D01*
X13812857Y-12681857D01*
X13812857Y-12667571D01*
X13827143Y-12639000D01*
X13855714Y-12624714D01*
X13898571Y-12624714D01*
X13927143Y-12639000D01*
X14298571Y-12710429D02*
X14527143Y-12710429D01*
X14412857Y-12824714D02*
X14412857Y-12596143D01*
X14870000Y-12524714D02*
X15055714Y-12524714D01*
X14955714Y-12639000D01*
X14998571Y-12639000D01*
X15027143Y-12653286D01*
X15041428Y-12667571D01*
X15055714Y-12696143D01*
X15055714Y-12767571D01*
X15041428Y-12796143D01*
X15027143Y-12810429D01*
X14998571Y-12824714D01*
X14912857Y-12824714D01*
X14884286Y-12810429D01*
X14870000Y-12796143D01*
X15398571Y-12810429D02*
X15427143Y-12824714D01*
X15484286Y-12824714D01*
X15512857Y-12810429D01*
X15527143Y-12781857D01*
X15527143Y-12767571D01*
X15512857Y-12739000D01*
X15484286Y-12724714D01*
X15441428Y-12724714D01*
X15412857Y-12710429D01*
X15398571Y-12681857D01*
X15398571Y-12667571D01*
X15412857Y-12639000D01*
X15441428Y-12624714D01*
X15484286Y-12624714D01*
X15512857Y-12639000D01*
X15698571Y-12824714D02*
X15670000Y-12810429D01*
X15655714Y-12781857D01*
X15655714Y-12524714D01*
X15855714Y-12824714D02*
X15827143Y-12810429D01*
X15812857Y-12796143D01*
X15798571Y-12767571D01*
X15798571Y-12681857D01*
X15812857Y-12653286D01*
X15827143Y-12639000D01*
X15855714Y-12624714D01*
X15898571Y-12624714D01*
X15927143Y-12639000D01*
X15941428Y-12653286D01*
X15955714Y-12681857D01*
X15955714Y-12767571D01*
X15941428Y-12796143D01*
X15927143Y-12810429D01*
X15898571Y-12824714D01*
X15855714Y-12824714D01*
X16041428Y-12624714D02*
X16155714Y-12624714D01*
X16084286Y-12524714D02*
X16084286Y-12781857D01*
X16098571Y-12810429D01*
X16127143Y-12824714D01*
X16155714Y-12824714D01*
X16241428Y-12810429D02*
X16270000Y-12824714D01*
X16327143Y-12824714D01*
X16355714Y-12810429D01*
X16370000Y-12781857D01*
X16370000Y-12767571D01*
X16355714Y-12739000D01*
X16327143Y-12724714D01*
X16284286Y-12724714D01*
X16255714Y-12710429D01*
X16241428Y-12681857D01*
X16241428Y-12667571D01*
X16255714Y-12639000D01*
X16284286Y-12624714D01*
X16327143Y-12624714D01*
X16355714Y-12639000D01*
X16470000Y-12939000D02*
X16484286Y-12924714D01*
X16512857Y-12881857D01*
X16527143Y-12853286D01*
X16541428Y-12810429D01*
X16555714Y-12739000D01*
X16555714Y-12681857D01*
X16541428Y-12610429D01*
X16527143Y-12567571D01*
X16512857Y-12539000D01*
X16484286Y-12496143D01*
X16470000Y-12481857D01*
X7445000Y-13030000D02*
X7555000Y-13140000D01*
X7555000Y-13030000D02*
X7445000Y-13140000D01*
X7555000Y-13085000D02*
G75*
G03X7555000Y-13085000I-55000J0D01*
G01*
X7998571Y-13220714D02*
X7827143Y-13220714D01*
X7912857Y-13220714D02*
X7912857Y-12920714D01*
X7884286Y-12963571D01*
X7855714Y-12992143D01*
X7827143Y-13006429D01*
X8127143Y-13192143D02*
X8141428Y-13206429D01*
X8127143Y-13220714D01*
X8112857Y-13206429D01*
X8127143Y-13192143D01*
X8127143Y-13220714D01*
X8427143Y-13220714D02*
X8255714Y-13220714D01*
X8341428Y-13220714D02*
X8341428Y-12920714D01*
X8312857Y-12963571D01*
X8284286Y-12992143D01*
X8255714Y-13006429D01*
X8612857Y-12920714D02*
X8641428Y-12920714D01*
X8670000Y-12935000D01*
X8684286Y-12949286D01*
X8698571Y-12977857D01*
X8712857Y-13035000D01*
X8712857Y-13106429D01*
X8698571Y-13163571D01*
X8684286Y-13192143D01*
X8670000Y-13206429D01*
X8641428Y-13220714D01*
X8612857Y-13220714D01*
X8584286Y-13206429D01*
X8570000Y-13192143D01*
X8555714Y-13163571D01*
X8541428Y-13106429D01*
X8541428Y-13035000D01*
X8555714Y-12977857D01*
X8570000Y-12949286D01*
X8584286Y-12935000D01*
X8612857Y-12920714D01*
X8841428Y-13220714D02*
X8841428Y-13020714D01*
X8841428Y-13049286D02*
X8855714Y-13035000D01*
X8884286Y-13020714D01*
X8927143Y-13020714D01*
X8955714Y-13035000D01*
X8970000Y-13063571D01*
X8970000Y-13220714D01*
X8970000Y-13063571D02*
X8984286Y-13035000D01*
X9012857Y-13020714D01*
X9055714Y-13020714D01*
X9084286Y-13035000D01*
X9098571Y-13063571D01*
X9098571Y-13220714D01*
X9241428Y-13220714D02*
X9241428Y-13020714D01*
X9241428Y-13049286D02*
X9255714Y-13035000D01*
X9284286Y-13020714D01*
X9327143Y-13020714D01*
X9355714Y-13035000D01*
X9370000Y-13063571D01*
X9370000Y-13220714D01*
X9370000Y-13063571D02*
X9384286Y-13035000D01*
X9412857Y-13020714D01*
X9455714Y-13020714D01*
X9484286Y-13035000D01*
X9498571Y-13063571D01*
X9498571Y-13220714D01*
X10084286Y-12906429D02*
X9827143Y-13292143D01*
X10470000Y-12920714D02*
X10498571Y-12920714D01*
X10527143Y-12935000D01*
X10541428Y-12949286D01*
X10555714Y-12977857D01*
X10570000Y-13035000D01*
X10570000Y-13106429D01*
X10555714Y-13163571D01*
X10541428Y-13192143D01*
X10527143Y-13206429D01*
X10498571Y-13220714D01*
X10470000Y-13220714D01*
X10441428Y-13206429D01*
X10427143Y-13192143D01*
X10412857Y-13163571D01*
X10398571Y-13106429D01*
X10398571Y-13035000D01*
X10412857Y-12977857D01*
X10427143Y-12949286D01*
X10441428Y-12935000D01*
X10470000Y-12920714D01*
X10698571Y-13192143D02*
X10712857Y-13206429D01*
X10698571Y-13220714D01*
X10684286Y-13206429D01*
X10698571Y-13192143D01*
X10698571Y-13220714D01*
X10898571Y-12920714D02*
X10927143Y-12920714D01*
X10955714Y-12935000D01*
X10970000Y-12949286D01*
X10984286Y-12977857D01*
X10998571Y-13035000D01*
X10998571Y-13106429D01*
X10984286Y-13163571D01*
X10970000Y-13192143D01*
X10955714Y-13206429D01*
X10927143Y-13220714D01*
X10898571Y-13220714D01*
X10870000Y-13206429D01*
X10855714Y-13192143D01*
X10841428Y-13163571D01*
X10827143Y-13106429D01*
X10827143Y-13035000D01*
X10841428Y-12977857D01*
X10855714Y-12949286D01*
X10870000Y-12935000D01*
X10898571Y-12920714D01*
X11255714Y-13020714D02*
X11255714Y-13220714D01*
X11184286Y-12906429D02*
X11112857Y-13120714D01*
X11298571Y-13120714D01*
X11384286Y-12920714D02*
X11570000Y-12920714D01*
X11470000Y-13035000D01*
X11512857Y-13035000D01*
X11541428Y-13049286D01*
X11555714Y-13063571D01*
X11570000Y-13092143D01*
X11570000Y-13163571D01*
X11555714Y-13192143D01*
X11541428Y-13206429D01*
X11512857Y-13220714D01*
X11427143Y-13220714D01*
X11398571Y-13206429D01*
X11384286Y-13192143D01*
X11684286Y-12920714D02*
X11684286Y-12977857D01*
X11798571Y-12920714D02*
X11798571Y-12977857D01*
X12241428Y-13335000D02*
X12227143Y-13320714D01*
X12198571Y-13277857D01*
X12184286Y-13249286D01*
X12170000Y-13206429D01*
X12155714Y-13135000D01*
X12155714Y-13077857D01*
X12170000Y-13006429D01*
X12184286Y-12963571D01*
X12198571Y-12935000D01*
X12227143Y-12892143D01*
X12241428Y-12877857D01*
X12484286Y-12920714D02*
X12427143Y-12920714D01*
X12398571Y-12935000D01*
X12384286Y-12949286D01*
X12355714Y-12992143D01*
X12341428Y-13049286D01*
X12341428Y-13163571D01*
X12355714Y-13192143D01*
X12370000Y-13206429D01*
X12398571Y-13220714D01*
X12455714Y-13220714D01*
X12484286Y-13206429D01*
X12498571Y-13192143D01*
X12512857Y-13163571D01*
X12512857Y-13092143D01*
X12498571Y-13063571D01*
X12484286Y-13049286D01*
X12455714Y-13035000D01*
X12398571Y-13035000D01*
X12370000Y-13049286D01*
X12355714Y-13063571D01*
X12341428Y-13092143D01*
X12870000Y-13220714D02*
X12870000Y-12920714D01*
X12998571Y-13220714D02*
X12998571Y-13063571D01*
X12984286Y-13035000D01*
X12955714Y-13020714D01*
X12912857Y-13020714D01*
X12884286Y-13035000D01*
X12870000Y-13049286D01*
X13184286Y-13220714D02*
X13155714Y-13206429D01*
X13141428Y-13192143D01*
X13127143Y-13163571D01*
X13127143Y-13077857D01*
X13141428Y-13049286D01*
X13155714Y-13035000D01*
X13184286Y-13020714D01*
X13227143Y-13020714D01*
X13255714Y-13035000D01*
X13270000Y-13049286D01*
X13284286Y-13077857D01*
X13284286Y-13163571D01*
X13270000Y-13192143D01*
X13255714Y-13206429D01*
X13227143Y-13220714D01*
X13184286Y-13220714D01*
X13455714Y-13220714D02*
X13427143Y-13206429D01*
X13412857Y-13177857D01*
X13412857Y-12920714D01*
X13684286Y-13206429D02*
X13655714Y-13220714D01*
X13598571Y-13220714D01*
X13570000Y-13206429D01*
X13555714Y-13177857D01*
X13555714Y-13063571D01*
X13570000Y-13035000D01*
X13598571Y-13020714D01*
X13655714Y-13020714D01*
X13684286Y-13035000D01*
X13698571Y-13063571D01*
X13698571Y-13092143D01*
X13555714Y-13120714D01*
X13812857Y-13206429D02*
X13841428Y-13220714D01*
X13898571Y-13220714D01*
X13927143Y-13206429D01*
X13941428Y-13177857D01*
X13941428Y-13163571D01*
X13927143Y-13135000D01*
X13898571Y-13120714D01*
X13855714Y-13120714D01*
X13827143Y-13106429D01*
X13812857Y-13077857D01*
X13812857Y-13063571D01*
X13827143Y-13035000D01*
X13855714Y-13020714D01*
X13898571Y-13020714D01*
X13927143Y-13035000D01*
X14041428Y-13335000D02*
X14055714Y-13320714D01*
X14084286Y-13277857D01*
X14098571Y-13249286D01*
X14112857Y-13206429D01*
X14127143Y-13135000D01*
X14127143Y-13077857D01*
X14112857Y-13006429D01*
X14098571Y-12963571D01*
X14084286Y-12935000D01*
X14055714Y-12892143D01*
X14041428Y-12877857D01*
X7425000Y-13416000D02*
X7555000Y-13546000D01*
X7555000Y-13416000D02*
X7425000Y-13546000D01*
X7490000Y-13416000D02*
X7490000Y-13546000D01*
X7425000Y-13481000D02*
X7555000Y-13481000D01*
X7998571Y-13616714D02*
X7827143Y-13616714D01*
X7912857Y-13616714D02*
X7912857Y-13316714D01*
X7884286Y-13359571D01*
X7855714Y-13388143D01*
X7827143Y-13402429D01*
X8127143Y-13588143D02*
X8141428Y-13602429D01*
X8127143Y-13616714D01*
X8112857Y-13602429D01*
X8127143Y-13588143D01*
X8127143Y-13616714D01*
X8241428Y-13316714D02*
X8427143Y-13316714D01*
X8327143Y-13431000D01*
X8370000Y-13431000D01*
X8398571Y-13445286D01*
X8412857Y-13459571D01*
X8427143Y-13488143D01*
X8427143Y-13559571D01*
X8412857Y-13588143D01*
X8398571Y-13602429D01*
X8370000Y-13616714D01*
X8284286Y-13616714D01*
X8255714Y-13602429D01*
X8241428Y-13588143D01*
X8612857Y-13316714D02*
X8641428Y-13316714D01*
X8670000Y-13331000D01*
X8684286Y-13345286D01*
X8698571Y-13373857D01*
X8712857Y-13431000D01*
X8712857Y-13502429D01*
X8698571Y-13559571D01*
X8684286Y-13588143D01*
X8670000Y-13602429D01*
X8641428Y-13616714D01*
X8612857Y-13616714D01*
X8584286Y-13602429D01*
X8570000Y-13588143D01*
X8555714Y-13559571D01*
X8541428Y-13502429D01*
X8541428Y-13431000D01*
X8555714Y-13373857D01*
X8570000Y-13345286D01*
X8584286Y-13331000D01*
X8612857Y-13316714D01*
X8841428Y-13616714D02*
X8841428Y-13416714D01*
X8841428Y-13445286D02*
X8855714Y-13431000D01*
X8884286Y-13416714D01*
X8927143Y-13416714D01*
X8955714Y-13431000D01*
X8970000Y-13459571D01*
X8970000Y-13616714D01*
X8970000Y-13459571D02*
X8984286Y-13431000D01*
X9012857Y-13416714D01*
X9055714Y-13416714D01*
X9084286Y-13431000D01*
X9098571Y-13459571D01*
X9098571Y-13616714D01*
X9241428Y-13616714D02*
X9241428Y-13416714D01*
X9241428Y-13445286D02*
X9255714Y-13431000D01*
X9284286Y-13416714D01*
X9327143Y-13416714D01*
X9355714Y-13431000D01*
X9370000Y-13459571D01*
X9370000Y-13616714D01*
X9370000Y-13459571D02*
X9384286Y-13431000D01*
X9412857Y-13416714D01*
X9455714Y-13416714D01*
X9484286Y-13431000D01*
X9498571Y-13459571D01*
X9498571Y-13616714D01*
X10084286Y-13302429D02*
X9827143Y-13688143D01*
X10470000Y-13316714D02*
X10498571Y-13316714D01*
X10527143Y-13331000D01*
X10541428Y-13345286D01*
X10555714Y-13373857D01*
X10570000Y-13431000D01*
X10570000Y-13502429D01*
X10555714Y-13559571D01*
X10541428Y-13588143D01*
X10527143Y-13602429D01*
X10498571Y-13616714D01*
X10470000Y-13616714D01*
X10441428Y-13602429D01*
X10427143Y-13588143D01*
X10412857Y-13559571D01*
X10398571Y-13502429D01*
X10398571Y-13431000D01*
X10412857Y-13373857D01*
X10427143Y-13345286D01*
X10441428Y-13331000D01*
X10470000Y-13316714D01*
X10698571Y-13588143D02*
X10712857Y-13602429D01*
X10698571Y-13616714D01*
X10684286Y-13602429D01*
X10698571Y-13588143D01*
X10698571Y-13616714D01*
X10898571Y-13316714D02*
X10927143Y-13316714D01*
X10955714Y-13331000D01*
X10970000Y-13345286D01*
X10984286Y-13373857D01*
X10998571Y-13431000D01*
X10998571Y-13502429D01*
X10984286Y-13559571D01*
X10970000Y-13588143D01*
X10955714Y-13602429D01*
X10927143Y-13616714D01*
X10898571Y-13616714D01*
X10870000Y-13602429D01*
X10855714Y-13588143D01*
X10841428Y-13559571D01*
X10827143Y-13502429D01*
X10827143Y-13431000D01*
X10841428Y-13373857D01*
X10855714Y-13345286D01*
X10870000Y-13331000D01*
X10898571Y-13316714D01*
X11270000Y-13316714D02*
X11127143Y-13316714D01*
X11112857Y-13459571D01*
X11127143Y-13445286D01*
X11155714Y-13431000D01*
X11227143Y-13431000D01*
X11255714Y-13445286D01*
X11270000Y-13459571D01*
X11284286Y-13488143D01*
X11284286Y-13559571D01*
X11270000Y-13588143D01*
X11255714Y-13602429D01*
X11227143Y-13616714D01*
X11155714Y-13616714D01*
X11127143Y-13602429D01*
X11112857Y-13588143D01*
X11570000Y-13616714D02*
X11398571Y-13616714D01*
X11484286Y-13616714D02*
X11484286Y-13316714D01*
X11455714Y-13359571D01*
X11427143Y-13388143D01*
X11398571Y-13402429D01*
X11684286Y-13316714D02*
X11684286Y-13373857D01*
X11798571Y-13316714D02*
X11798571Y-13373857D01*
X12241428Y-13731000D02*
X12227143Y-13716714D01*
X12198571Y-13673857D01*
X12184286Y-13645286D01*
X12170000Y-13602429D01*
X12155714Y-13531000D01*
X12155714Y-13473857D01*
X12170000Y-13402429D01*
X12184286Y-13359571D01*
X12198571Y-13331000D01*
X12227143Y-13288143D01*
X12241428Y-13273857D01*
X12512857Y-13616714D02*
X12341428Y-13616714D01*
X12427143Y-13616714D02*
X12427143Y-13316714D01*
X12398571Y-13359571D01*
X12370000Y-13388143D01*
X12341428Y-13402429D01*
X12798571Y-13616714D02*
X12627143Y-13616714D01*
X12712857Y-13616714D02*
X12712857Y-13316714D01*
X12684286Y-13359571D01*
X12655714Y-13388143D01*
X12627143Y-13402429D01*
X13155714Y-13616714D02*
X13155714Y-13316714D01*
X13284286Y-13616714D02*
X13284286Y-13459571D01*
X13270000Y-13431000D01*
X13241428Y-13416714D01*
X13198571Y-13416714D01*
X13170000Y-13431000D01*
X13155714Y-13445286D01*
X13470000Y-13616714D02*
X13441428Y-13602429D01*
X13427143Y-13588143D01*
X13412857Y-13559571D01*
X13412857Y-13473857D01*
X13427143Y-13445286D01*
X13441428Y-13431000D01*
X13470000Y-13416714D01*
X13512857Y-13416714D01*
X13541428Y-13431000D01*
X13555714Y-13445286D01*
X13570000Y-13473857D01*
X13570000Y-13559571D01*
X13555714Y-13588143D01*
X13541428Y-13602429D01*
X13512857Y-13616714D01*
X13470000Y-13616714D01*
X13741428Y-13616714D02*
X13712857Y-13602429D01*
X13698571Y-13573857D01*
X13698571Y-13316714D01*
X13970000Y-13602429D02*
X13941428Y-13616714D01*
X13884286Y-13616714D01*
X13855714Y-13602429D01*
X13841428Y-13573857D01*
X13841428Y-13459571D01*
X13855714Y-13431000D01*
X13884286Y-13416714D01*
X13941428Y-13416714D01*
X13970000Y-13431000D01*
X13984286Y-13459571D01*
X13984286Y-13488143D01*
X13841428Y-13516714D01*
X14098571Y-13602429D02*
X14127143Y-13616714D01*
X14184286Y-13616714D01*
X14212857Y-13602429D01*
X14227143Y-13573857D01*
X14227143Y-13559571D01*
X14212857Y-13531000D01*
X14184286Y-13516714D01*
X14141428Y-13516714D01*
X14112857Y-13502429D01*
X14098571Y-13473857D01*
X14098571Y-13459571D01*
X14112857Y-13431000D01*
X14141428Y-13416714D01*
X14184286Y-13416714D01*
X14212857Y-13431000D01*
X14327143Y-13731000D02*
X14341428Y-13716714D01*
X14370000Y-13673857D01*
X14384286Y-13645286D01*
X14398571Y-13602429D01*
X14412857Y-13531000D01*
X14412857Y-13473857D01*
X14398571Y-13402429D01*
X14384286Y-13359571D01*
X14370000Y-13331000D01*
X14341428Y-13288143D01*
X14327143Y-13273857D01*
X7335000Y-13767000D02*
X7555000Y-13987000D01*
X7555000Y-13767000D02*
X7335000Y-13987000D01*
X7522782Y-13954783D02*
X7522782Y-13799218D01*
X7367217Y-13799218D01*
X7367217Y-13954783D01*
X7522782Y-13954783D01*
X7827143Y-13741286D02*
X7841428Y-13727000D01*
X7870000Y-13712714D01*
X7941428Y-13712714D01*
X7970000Y-13727000D01*
X7984286Y-13741286D01*
X7998571Y-13769857D01*
X7998571Y-13798429D01*
X7984286Y-13841286D01*
X7812857Y-14012714D01*
X7998571Y-14012714D01*
X8127143Y-13984143D02*
X8141428Y-13998429D01*
X8127143Y-14012714D01*
X8112857Y-13998429D01*
X8127143Y-13984143D01*
X8127143Y-14012714D01*
X8255714Y-13741286D02*
X8270000Y-13727000D01*
X8298571Y-13712714D01*
X8370000Y-13712714D01*
X8398571Y-13727000D01*
X8412857Y-13741286D01*
X8427143Y-13769857D01*
X8427143Y-13798429D01*
X8412857Y-13841286D01*
X8241428Y-14012714D01*
X8427143Y-14012714D01*
X8612857Y-13712714D02*
X8641428Y-13712714D01*
X8670000Y-13727000D01*
X8684286Y-13741286D01*
X8698571Y-13769857D01*
X8712857Y-13827000D01*
X8712857Y-13898429D01*
X8698571Y-13955571D01*
X8684286Y-13984143D01*
X8670000Y-13998429D01*
X8641428Y-14012714D01*
X8612857Y-14012714D01*
X8584286Y-13998429D01*
X8570000Y-13984143D01*
X8555714Y-13955571D01*
X8541428Y-13898429D01*
X8541428Y-13827000D01*
X8555714Y-13769857D01*
X8570000Y-13741286D01*
X8584286Y-13727000D01*
X8612857Y-13712714D01*
X8841428Y-14012714D02*
X8841428Y-13812714D01*
X8841428Y-13841286D02*
X8855714Y-13827000D01*
X8884286Y-13812714D01*
X8927143Y-13812714D01*
X8955714Y-13827000D01*
X8970000Y-13855571D01*
X8970000Y-14012714D01*
X8970000Y-13855571D02*
X8984286Y-13827000D01*
X9012857Y-13812714D01*
X9055714Y-13812714D01*
X9084286Y-13827000D01*
X9098571Y-13855571D01*
X9098571Y-14012714D01*
X9241428Y-14012714D02*
X9241428Y-13812714D01*
X9241428Y-13841286D02*
X9255714Y-13827000D01*
X9284286Y-13812714D01*
X9327143Y-13812714D01*
X9355714Y-13827000D01*
X9370000Y-13855571D01*
X9370000Y-14012714D01*
X9370000Y-13855571D02*
X9384286Y-13827000D01*
X9412857Y-13812714D01*
X9455714Y-13812714D01*
X9484286Y-13827000D01*
X9498571Y-13855571D01*
X9498571Y-14012714D01*
X10084286Y-13698429D02*
X9827143Y-14084143D01*
X10470000Y-13712714D02*
X10498571Y-13712714D01*
X10527143Y-13727000D01*
X10541428Y-13741286D01*
X10555714Y-13769857D01*
X10570000Y-13827000D01*
X10570000Y-13898429D01*
X10555714Y-13955571D01*
X10541428Y-13984143D01*
X10527143Y-13998429D01*
X10498571Y-14012714D01*
X10470000Y-14012714D01*
X10441428Y-13998429D01*
X10427143Y-13984143D01*
X10412857Y-13955571D01*
X10398571Y-13898429D01*
X10398571Y-13827000D01*
X10412857Y-13769857D01*
X10427143Y-13741286D01*
X10441428Y-13727000D01*
X10470000Y-13712714D01*
X10698571Y-13984143D02*
X10712857Y-13998429D01*
X10698571Y-14012714D01*
X10684286Y-13998429D01*
X10698571Y-13984143D01*
X10698571Y-14012714D01*
X10898571Y-13712714D02*
X10927143Y-13712714D01*
X10955714Y-13727000D01*
X10970000Y-13741286D01*
X10984286Y-13769857D01*
X10998571Y-13827000D01*
X10998571Y-13898429D01*
X10984286Y-13955571D01*
X10970000Y-13984143D01*
X10955714Y-13998429D01*
X10927143Y-14012714D01*
X10898571Y-14012714D01*
X10870000Y-13998429D01*
X10855714Y-13984143D01*
X10841428Y-13955571D01*
X10827143Y-13898429D01*
X10827143Y-13827000D01*
X10841428Y-13769857D01*
X10855714Y-13741286D01*
X10870000Y-13727000D01*
X10898571Y-13712714D01*
X11170000Y-13841286D02*
X11141428Y-13827000D01*
X11127143Y-13812714D01*
X11112857Y-13784143D01*
X11112857Y-13769857D01*
X11127143Y-13741286D01*
X11141428Y-13727000D01*
X11170000Y-13712714D01*
X11227143Y-13712714D01*
X11255714Y-13727000D01*
X11270000Y-13741286D01*
X11284286Y-13769857D01*
X11284286Y-13784143D01*
X11270000Y-13812714D01*
X11255714Y-13827000D01*
X11227143Y-13841286D01*
X11170000Y-13841286D01*
X11141428Y-13855571D01*
X11127143Y-13869857D01*
X11112857Y-13898429D01*
X11112857Y-13955571D01*
X11127143Y-13984143D01*
X11141428Y-13998429D01*
X11170000Y-14012714D01*
X11227143Y-14012714D01*
X11255714Y-13998429D01*
X11270000Y-13984143D01*
X11284286Y-13955571D01*
X11284286Y-13898429D01*
X11270000Y-13869857D01*
X11255714Y-13855571D01*
X11227143Y-13841286D01*
X11384286Y-13712714D02*
X11584286Y-13712714D01*
X11455714Y-14012714D01*
X11684286Y-13712714D02*
X11684286Y-13769857D01*
X11798571Y-13712714D02*
X11798571Y-13769857D01*
X12241428Y-14127000D02*
X12227143Y-14112714D01*
X12198571Y-14069857D01*
X12184286Y-14041286D01*
X12170000Y-13998429D01*
X12155714Y-13927000D01*
X12155714Y-13869857D01*
X12170000Y-13798429D01*
X12184286Y-13755571D01*
X12198571Y-13727000D01*
X12227143Y-13684143D01*
X12241428Y-13669857D01*
X12484286Y-13812714D02*
X12484286Y-14012714D01*
X12412857Y-13698429D02*
X12341428Y-13912714D01*
X12527143Y-13912714D01*
X12870000Y-14012714D02*
X12870000Y-13712714D01*
X12998571Y-14012714D02*
X12998571Y-13855571D01*
X12984286Y-13827000D01*
X12955714Y-13812714D01*
X12912857Y-13812714D01*
X12884286Y-13827000D01*
X12870000Y-13841286D01*
X13184286Y-14012714D02*
X13155714Y-13998429D01*
X13141428Y-13984143D01*
X13127143Y-13955571D01*
X13127143Y-13869857D01*
X13141428Y-13841286D01*
X13155714Y-13827000D01*
X13184286Y-13812714D01*
X13227143Y-13812714D01*
X13255714Y-13827000D01*
X13270000Y-13841286D01*
X13284286Y-13869857D01*
X13284286Y-13955571D01*
X13270000Y-13984143D01*
X13255714Y-13998429D01*
X13227143Y-14012714D01*
X13184286Y-14012714D01*
X13455714Y-14012714D02*
X13427143Y-13998429D01*
X13412857Y-13969857D01*
X13412857Y-13712714D01*
X13684286Y-13998429D02*
X13655714Y-14012714D01*
X13598571Y-14012714D01*
X13570000Y-13998429D01*
X13555714Y-13969857D01*
X13555714Y-13855571D01*
X13570000Y-13827000D01*
X13598571Y-13812714D01*
X13655714Y-13812714D01*
X13684286Y-13827000D01*
X13698571Y-13855571D01*
X13698571Y-13884143D01*
X13555714Y-13912714D01*
X13812857Y-13998429D02*
X13841428Y-14012714D01*
X13898571Y-14012714D01*
X13927143Y-13998429D01*
X13941428Y-13969857D01*
X13941428Y-13955571D01*
X13927143Y-13927000D01*
X13898571Y-13912714D01*
X13855714Y-13912714D01*
X13827143Y-13898429D01*
X13812857Y-13869857D01*
X13812857Y-13855571D01*
X13827143Y-13827000D01*
X13855714Y-13812714D01*
X13898571Y-13812714D01*
X13927143Y-13827000D01*
X14041428Y-14127000D02*
X14055714Y-14112714D01*
X14084286Y-14069857D01*
X14098571Y-14041286D01*
X14112857Y-13998429D01*
X14127143Y-13927000D01*
X14127143Y-13869857D01*
X14112857Y-13798429D01*
X14098571Y-13755571D01*
X14084286Y-13727000D01*
X14055714Y-13684143D01*
X14041428Y-13669857D01*
X7285000Y-14138000D02*
X7555000Y-14408000D01*
X7555000Y-14138000D02*
X7285000Y-14408000D01*
X7420000Y-14408000D02*
X7555000Y-14273000D01*
X7420000Y-14138000D01*
X7285000Y-14273000D01*
X7420000Y-14408000D01*
X7827143Y-14137286D02*
X7841428Y-14123000D01*
X7870000Y-14108714D01*
X7941428Y-14108714D01*
X7970000Y-14123000D01*
X7984286Y-14137286D01*
X7998571Y-14165857D01*
X7998571Y-14194429D01*
X7984286Y-14237286D01*
X7812857Y-14408714D01*
X7998571Y-14408714D01*
X8127143Y-14380143D02*
X8141428Y-14394429D01*
X8127143Y-14408714D01*
X8112857Y-14394429D01*
X8127143Y-14380143D01*
X8127143Y-14408714D01*
X8241428Y-14108714D02*
X8441428Y-14108714D01*
X8312857Y-14408714D01*
X8612857Y-14108714D02*
X8641428Y-14108714D01*
X8670000Y-14123000D01*
X8684286Y-14137286D01*
X8698571Y-14165857D01*
X8712857Y-14223000D01*
X8712857Y-14294429D01*
X8698571Y-14351571D01*
X8684286Y-14380143D01*
X8670000Y-14394429D01*
X8641428Y-14408714D01*
X8612857Y-14408714D01*
X8584286Y-14394429D01*
X8570000Y-14380143D01*
X8555714Y-14351571D01*
X8541428Y-14294429D01*
X8541428Y-14223000D01*
X8555714Y-14165857D01*
X8570000Y-14137286D01*
X8584286Y-14123000D01*
X8612857Y-14108714D01*
X8841428Y-14408714D02*
X8841428Y-14208714D01*
X8841428Y-14237286D02*
X8855714Y-14223000D01*
X8884286Y-14208714D01*
X8927143Y-14208714D01*
X8955714Y-14223000D01*
X8970000Y-14251571D01*
X8970000Y-14408714D01*
X8970000Y-14251571D02*
X8984286Y-14223000D01*
X9012857Y-14208714D01*
X9055714Y-14208714D01*
X9084286Y-14223000D01*
X9098571Y-14251571D01*
X9098571Y-14408714D01*
X9241428Y-14408714D02*
X9241428Y-14208714D01*
X9241428Y-14237286D02*
X9255714Y-14223000D01*
X9284286Y-14208714D01*
X9327143Y-14208714D01*
X9355714Y-14223000D01*
X9370000Y-14251571D01*
X9370000Y-14408714D01*
X9370000Y-14251571D02*
X9384286Y-14223000D01*
X9412857Y-14208714D01*
X9455714Y-14208714D01*
X9484286Y-14223000D01*
X9498571Y-14251571D01*
X9498571Y-14408714D01*
X10084286Y-14094429D02*
X9827143Y-14480143D01*
X10470000Y-14108714D02*
X10498571Y-14108714D01*
X10527143Y-14123000D01*
X10541428Y-14137286D01*
X10555714Y-14165857D01*
X10570000Y-14223000D01*
X10570000Y-14294429D01*
X10555714Y-14351571D01*
X10541428Y-14380143D01*
X10527143Y-14394429D01*
X10498571Y-14408714D01*
X10470000Y-14408714D01*
X10441428Y-14394429D01*
X10427143Y-14380143D01*
X10412857Y-14351571D01*
X10398571Y-14294429D01*
X10398571Y-14223000D01*
X10412857Y-14165857D01*
X10427143Y-14137286D01*
X10441428Y-14123000D01*
X10470000Y-14108714D01*
X10698571Y-14380143D02*
X10712857Y-14394429D01*
X10698571Y-14408714D01*
X10684286Y-14394429D01*
X10698571Y-14380143D01*
X10698571Y-14408714D01*
X10998571Y-14408714D02*
X10827143Y-14408714D01*
X10912857Y-14408714D02*
X10912857Y-14108714D01*
X10884286Y-14151571D01*
X10855714Y-14180143D01*
X10827143Y-14194429D01*
X11184286Y-14108714D02*
X11212857Y-14108714D01*
X11241428Y-14123000D01*
X11255714Y-14137286D01*
X11270000Y-14165857D01*
X11284286Y-14223000D01*
X11284286Y-14294429D01*
X11270000Y-14351571D01*
X11255714Y-14380143D01*
X11241428Y-14394429D01*
X11212857Y-14408714D01*
X11184286Y-14408714D01*
X11155714Y-14394429D01*
X11141428Y-14380143D01*
X11127143Y-14351571D01*
X11112857Y-14294429D01*
X11112857Y-14223000D01*
X11127143Y-14165857D01*
X11141428Y-14137286D01*
X11155714Y-14123000D01*
X11184286Y-14108714D01*
X11541428Y-14108714D02*
X11484286Y-14108714D01*
X11455714Y-14123000D01*
X11441428Y-14137286D01*
X11412857Y-14180143D01*
X11398571Y-14237286D01*
X11398571Y-14351571D01*
X11412857Y-14380143D01*
X11427143Y-14394429D01*
X11455714Y-14408714D01*
X11512857Y-14408714D01*
X11541428Y-14394429D01*
X11555714Y-14380143D01*
X11570000Y-14351571D01*
X11570000Y-14280143D01*
X11555714Y-14251571D01*
X11541428Y-14237286D01*
X11512857Y-14223000D01*
X11455714Y-14223000D01*
X11427143Y-14237286D01*
X11412857Y-14251571D01*
X11398571Y-14280143D01*
X11684286Y-14108714D02*
X11684286Y-14165857D01*
X11798571Y-14108714D02*
X11798571Y-14165857D01*
X12241428Y-14523000D02*
X12227143Y-14508714D01*
X12198571Y-14465857D01*
X12184286Y-14437286D01*
X12170000Y-14394429D01*
X12155714Y-14323000D01*
X12155714Y-14265857D01*
X12170000Y-14194429D01*
X12184286Y-14151571D01*
X12198571Y-14123000D01*
X12227143Y-14080143D01*
X12241428Y-14065857D01*
X12341428Y-14137286D02*
X12355714Y-14123000D01*
X12384286Y-14108714D01*
X12455714Y-14108714D01*
X12484286Y-14123000D01*
X12498571Y-14137286D01*
X12512857Y-14165857D01*
X12512857Y-14194429D01*
X12498571Y-14237286D01*
X12327143Y-14408714D01*
X12512857Y-14408714D01*
X12870000Y-14408714D02*
X12870000Y-14108714D01*
X12998571Y-14408714D02*
X12998571Y-14251571D01*
X12984286Y-14223000D01*
X12955714Y-14208714D01*
X12912857Y-14208714D01*
X12884286Y-14223000D01*
X12870000Y-14237286D01*
X13184286Y-14408714D02*
X13155714Y-14394429D01*
X13141428Y-14380143D01*
X13127143Y-14351571D01*
X13127143Y-14265857D01*
X13141428Y-14237286D01*
X13155714Y-14223000D01*
X13184286Y-14208714D01*
X13227143Y-14208714D01*
X13255714Y-14223000D01*
X13270000Y-14237286D01*
X13284286Y-14265857D01*
X13284286Y-14351571D01*
X13270000Y-14380143D01*
X13255714Y-14394429D01*
X13227143Y-14408714D01*
X13184286Y-14408714D01*
X13455714Y-14408714D02*
X13427143Y-14394429D01*
X13412857Y-14365857D01*
X13412857Y-14108714D01*
X13684286Y-14394429D02*
X13655714Y-14408714D01*
X13598571Y-14408714D01*
X13570000Y-14394429D01*
X13555714Y-14365857D01*
X13555714Y-14251571D01*
X13570000Y-14223000D01*
X13598571Y-14208714D01*
X13655714Y-14208714D01*
X13684286Y-14223000D01*
X13698571Y-14251571D01*
X13698571Y-14280143D01*
X13555714Y-14308714D01*
X13812857Y-14394429D02*
X13841428Y-14408714D01*
X13898571Y-14408714D01*
X13927143Y-14394429D01*
X13941428Y-14365857D01*
X13941428Y-14351571D01*
X13927143Y-14323000D01*
X13898571Y-14308714D01*
X13855714Y-14308714D01*
X13827143Y-14294429D01*
X13812857Y-14265857D01*
X13812857Y-14251571D01*
X13827143Y-14223000D01*
X13855714Y-14208714D01*
X13898571Y-14208714D01*
X13927143Y-14223000D01*
X14041428Y-14523000D02*
X14055714Y-14508714D01*
X14084286Y-14465857D01*
X14098571Y-14437286D01*
X14112857Y-14394429D01*
X14127143Y-14323000D01*
X14127143Y-14265857D01*
X14112857Y-14194429D01*
X14098571Y-14151571D01*
X14084286Y-14123000D01*
X14055714Y-14080143D01*
X14041428Y-14065857D01*
M02*
