M48
; DRILL file {KiCad (5.1.5)-3} date 7/16/2021 1:31:27 PM
; FORMAT={-:-/ absolute / metric / decimal}
; #@! TF.CreationDate,2021-07-16T13:31:27-05:00
; #@! TF.GenerationSoftware,Kicad,Pcbnew,(5.1.5)-3
; #@! TF.FileFunction,Plated,1,2,PTH
FMAT,2
METRIC
T1C0.600
T2C0.700
T3C0.800
T4C0.900
T5C1.000
T6C1.100
T7C1.300
T8C2.200
T9C2.700
%
G90
G05
T1
X123.99Y-66.27
X123.99Y-68.81
X131.61Y-61.19
X131.61Y-63.73
T2
X96.4Y-65.2
X177.19Y-56.39
X184.81Y-64.01
X177.19Y-69.79
X184.81Y-77.41
T3
X157.2Y-44.6
X166.845Y-52.744
X190.9Y-81.1
X190.9Y-83.64
X86.68Y-78.58
X86.68Y-81.12
T4
X145.4Y-75.0
X145.4Y-85.16
T6
X163.0Y-75.2
X163.0Y-77.74
X163.0Y-80.28
X89.0Y-55.82
X89.0Y-58.11
X89.0Y-60.4
T7
X79.2Y-49.7
X84.2Y-44.6
X84.2Y-47.2
X84.2Y-52.2
X84.2Y-54.8
X139.206Y-67.003
X141.706Y-69.903
X144.206Y-67.003
X139.3Y-93.9
X141.8Y-91.0
X144.3Y-93.9
T8
X195.98Y-76.02
X195.98Y-86.18
X81.6Y-76.04
X81.6Y-86.2
T9
X159.6Y-64.8
X159.6Y-90.8
T5
X83.4Y-37.0G85X83.4Y-39.0
G05
X85.4Y-33.3G85X87.4Y-33.3
G05
X89.4Y-37.0G85X89.4Y-39.0
G05
T0
M30
